<svg xmlns="http://www.w3.org/2000/svg" viewBox="0 0 100 100"><path d="m20 100-1.9-.7a7.8 7.8 0 0 1-4.6-6.9V8.5c0-4 2-7.1 5.5-8.1.8-.3 1.7-.4 2.5-.4h43.3C69.7 0 73 3.4 73 8.4v41.7l-.1 1.2c-.1.7-.7 1.1-1.4 1.1s-1.3-.6-1.3-1.3V8.5c0-2.8-1.4-5-3.9-5.3-1.5-.2-3.1-.2-4.6-.2h-1.6c-.2 0-.4.4-.4.6l-.6 3a6.5 6.5 0 0 1-6.3 5.4H33.7a6.6 6.6 0 0 1-6.3-5.3l-.7-3.5a47 47 0 0 0-6.5.1A4.7 4.7 0 0 0 16.3 8v83.7c0 2.9 1.5 5 4 5.5l1.3.1h43.3c3.2 0 5.3-2.1 5.3-5.4V79.2l-.1-.9h-8.8c-1.7 0-3.2-.9-4.1-2.4-.2-.3-.6-.5-1-.6H34.1c-.3 0-.7.2-.9.4a5 5 0 0 1-4.7 3l-.3.1V83c0 .9.7 1.6 1.6 1.6h4.9c1.1 0 1.8.5 1.8 1.4 0 .9-.7 1.5-1.7 1.5h-4.9c-2.5 0-4.4-2-4.4-4.5v-4.1l-1.8-.3a4.8 4.8 0 0 1-3.6-5c.1-2.4 2-4.3 4.4-4.5a40 40 0 0 1 4.9 0c1.7.1 3.3 1.2 4 2.7.1.3.5.6.7.6h6.7l.1-1v-6a4.5 4.5 0 0 1 4.2-4.7H56a1 1 0 0 0 1.2-.8 4.4 4.4 0 0 1 4.3-3.1h20.8c2.7.1 4.8 2.4 4.6 5a4.8 4.8 0 0 1-4.6 4.6H73v2h8.5a4.9 4.9 0 0 1 5 4.7 4.9 4.9 0 0 1-4.7 5H73v13c0 4.7-2 7.4-6.4 8.7l-.1.1-46.5.1zm8.9-24.4a2 2 0 0 0 1.9-1.9c0-1-.8-1.9-1.8-1.9h-4.4c-1 0-1.8.9-1.8 1.9 0 1 .8 1.9 1.9 1.9h4.2zm52.8-.4c1.1.1 2-.7 2-1.8.1-1.1-.7-2-1.8-2h-20l-1 .1a2 2 0 0 0-1.5 2.2v.1a2 2 0 0 0 2.1 1.5h10.1l10.1-.1zM45 63.5c-.8-.1-1.5.5-1.5 1.3V72l.3.1h12.4c.3-.1.6-.3.7-.6.7-2 2.6-3.3 4.7-3.2h7.5l1-.1v-2h-8.6a5 5 0 0 1-4.4-2.4l-.7-.5h-6.1c-1.7.2-3.5.2-5.3.2zm16.5-3.9c-1.1-.1-2 .6-2.1 1.7l.1.7c.2.9 1 1.4 2.2 1.4h19.8c.4 0 .9 0 1.1-.2.5-.5 1.1-1.1 1.1-1.6-.1-.7-.4-1.3-.9-1.7-.3-.3-.9-.3-1.3-.3h-20zM30.3 6.5A3.4 3.4 0 0 0 33.6 9h19.2c1.6 0 3-1.1 3.4-2.6l.7-3.4H29.5l.8 3.5zm20.6 84.1h-5.8a4.7 4.7 0 0 1-4.8-4.8c0-2.7 2.1-4.8 4.8-4.8H57c2.6 0 4.7 2.1 4.7 4.6v.3c0 2.6-2.1 4.7-4.7 4.8h-2.3l-3.8-.1zm5.7-2.9c1 .1 2-.7 2.1-1.7s-.7-2-1.7-2.1H45.1a2 2 0 0 0-2.1 1.7v.2c0 1.1.9 1.9 1.9 1.9h11.7zm6-41.2-7.4-10.1-.5-.7-.7.8-6.8 9.3-.5.6c-.5.6-1.3.6-1.9.2-.6-.5-.7-1.4-.3-2l1.7-2.4 6.6-9-5.9-8.1a23 23 0 0 1-1.4-1.9c-.5-.7-.5-1.6.1-2.2h.1c.6-.5 1.5-.4 2 .2l.1.2 6.5 8.9.4.5.6-.8 5.9-8.1.4-.5c.4-.6 1.3-.8 1.9-.3.6.5.8 1.4.3 2.1l-1.3 1.9-6 8.3A641 641 0 0 0 65 45c.7.9.6 1.8-.1 2.3-.2.2-.5.3-.8.3-.7-.3-1.2-.6-1.5-1.1zM21.1 40c-.2-1.2-.2-2.5-.1-3.7V22.8c0-1.3.5-2 1.4-2 .9 0 1.4.7 1.4 2 0 5 .2 10-.1 15-.2 3.8 3.8 6.8 7.1 6.3 1.5-.2 2.9-.8 4.1-1.9a5 5 0 0 0 1.8-4.1v-16c0-.8.6-1.4 1.4-1.4h.1c.8 0 1.3.7 1.3 1.4v15.3a9 9 0 0 1-9.3 9.6 8.7 8.7 0 0 1-9.1-7zM64 9.1c-.8-.1-1.4-.7-1.3-1.5 0-.7.7-1.3 1.4-1.3.8 0 1.4.7 1.4 1.5-.1.7-.7 1.3-1.5 1.3zM41.5 7.7h-1.1c-.7 0-1.4-.6-1.4-1.3v-.2c0-.8.6-1.4 1.4-1.4h5.7c.8 0 1.4.5 1.5 1.3v.1c0 .7-.5 1.4-1.3 1.4h-4.4l-.4.1z"></path></svg>