<svg xmlns="http://www.w3.org/2000/svg" viewBox="0 0 100 100"><path d="M75.3 100H23.9c-1.1 0-1.9-.9-1.9-2 0-1 .8-1.9 1.8-1.9H30l.2-2.4a5.7 5.7 0 0 1 5.1-4.6l2.8-.1h2c.3 0 .8-.3.8-.5l2.2-9.2H13c-4.2 0-7.3-2.4-8.2-6.1-.2-.7-.2-1.5-.2-2.2V21.5c0-4.2 2.4-7.4 6.3-8.2l2.4-.2h51.1c.7.1 1.3-.3 1.7-.9C67.5 10 69 8 70.3 5.8 72 3 74.1.8 77.4.1h2.5l2.2.7a8.5 8.5 0 0 1 4.5 11.1l-.5 1.1 1.1.1a8 8 0 0 1 7.9 7.5v50.3c0 3.9-2 6.9-5.4 8-1.1.3-2.2.5-3.4.5H56.5l1.1 4.6 1 4.4c0 .4.4.8.8.7h3.8c4 0 6.4 2.4 6.5 6.4v.7H76c1 0 1.8.9 1.8 1.9a2 2 0 0 1-1.8 2h-.4l-.3-.1zm-38.5-7.1c-2.3 0-3 .7-2.8 3.2h32c.2-2.4-.5-3.2-2.8-3.2H36.8zm8.2-4h10l-2.3-9.6h-5.4L45 88.9zM8.7 63.1v7.7c0 2.9 1.6 4.5 4.5 4.5h73.7c2.8 0 4.4-1.6 4.4-4.4v-7.4c0-1.3 0-1.3-1.3-1.3H29.5c-.9-.1-1.6-.9-1.6-1.8-.1-.9.5-1.7 1.4-2l1.6-.1h60.4V20.6c-.1-2-1.8-3.6-3.9-3.6h-3.3c-.7-.1-1.3.3-1.7.8L66.1 37.6c-.7.7-.9 1.6-.6 2.5.2.6.2 1.2.2 1.8a9.1 9.1 0 0 1-8.3 10h-5.6c-2.4-.2-4.8.6-6.7 2.2-.7.7-1.9.8-2.7 0-.3-.3-.5-.6-.5-1-1-3.5-1.5-7.2-1.2-10.9.6-6.9 5.4-11.5 12.3-11.8.5 0 1-.3 1.3-.7l8-12 .5-.9H13.3c-3.1 0-4.6 1.5-4.6 4.6v36.7h5.7c1 0 1.9.9 1.9 1.9v.1c0 1.1-.9 1.9-2 1.9H8.7v1.1zm36.5-22.8a18 18 0 0 0 0 9.2 16 16 0 0 1 8.6-1.3h2.6c2.8-.2 4.8-1.6 5.3-4.1.2-1.2.1-2.5-.1-3.7a2 2 0 0 0-.8-1.2 885.8 885.8 0 0 0-6.8-4.8h-.8a8.4 8.4 0 0 0-8 5.9zM57.6 32l5 3.7a237 237 0 0 0 4.2-5.2l-5.5-4.1-3.7 5.6zM74.9 6.1 63.7 22.8l-.2.4 5.8 4.3 1.9-2.3 11-13.4c1.2-1.2 1.6-3 1.1-4.6-.5-1.8-2-3-3.8-3.2l-.7-.1c-1.6 0-3.1.8-3.9 2.2zM22 62.2a1.9 1.9 0 1 1 0-3.8 2 2 0 0 1 2 2c0 .9-.9 1.8-2 1.8z"></path></svg>