<svg xmlns="http://www.w3.org/2000/svg" viewBox="0 0 100 100"><path d="M29.9 100c-.8 0-1.5-.6-1.5-1.4 0-.8.6-1.5 1.4-1.5h6.7v-3.5c0-1.1.6-1.7 1.5-1.7s1.4.7 1.5 1.7V97h21.4V80.7H39.2v7c0 .8-.7 1.4-1.4 1.4-.8 0-1.4-.6-1.5-1.3v-7.3H7.8a7.2 7.2 0 0 1-7.6-6.3c-.2-.4-.2-.9-.2-1.4V14.3c0-4.8 3-7.8 7.9-7.8h3.4c1.1 0 1.7.6 1.8 1.4 0 .9-.7 1.5-1.8 1.5h-4A4.3 4.3 0 0 0 3 13.7v48.6l.1.3h2.5V14.5c0-2 .6-2.6 2.6-2.6h57.6c1.1 0 1.8-.2 2.1-1.3l.6-1.3H17c-.8-.1-1.3-.8-1.2-1.5 0-.7.6-1.3 1.3-1.3h51.7c.7.1 1.3-.3 1.5-1l.7-1.4c.7-2 2.2-3.5 4.2-4.1h2l.9.4c2 .8 3.6 1.9 4.1 4.2l.2 1.9H93c3.1 0 5.9 2.1 6.8 5l.4 1.2v61.7l-.2.4a7.3 7.3 0 0 1-7.1 5.7c-2.9.1-5.8 0-8.7 0-1.1 0-1.7-.6-1.8-1.4 0-.9.7-1.5 1.8-1.5h8.1c3.1 0 4.9-1.8 4.9-4.9v-7.1H3v8.2c.2 2.1 2 3.7 4.1 3.8h71.2c.7 0 1.2.6 1.2 1.3.1.7-.3 1.3-1 1.5l-1.2.1H63.7V97h6.4c.8 0 1.5.6 1.5 1.3v.1c0 .8-.7 1.5-1.5 1.5H30l-.1.1zm61.9-88.1c2.2 0 2.7.5 2.7 2.7v48H97V13.5c-.1-2.2-1.9-4-4.1-4.1H81.5a1 1 0 0 0-.7.3L79.7 12h12.1v-.1zM8.5 62.6h83.1V14.9H78.9c-.2 0-.5.1-.6.3l-3 6.1H77a4 4 0 0 1 4.3 3.6v31a6 6 0 0 1-.7 2.6c-.8 1.4-2.2 1.7-3.8 1.7h-53c-2.6 0-4.8-1.4-4.7-4.7V26.1c0-3.4 2.2-4.8 4.7-4.8h38.1c.6.1 1.1-.2 1.3-.8l1.3-2.6 1.4-3H8.5v47.7zm66.8-5.4c3.1 0 2.9 0 2.9-2.9V49c-1.1 0-2-.2-2.1-1.4-.1-1.4 1-1.5 2-1.6V35.5c-1.6-.4-2.1-.8-2.1-1.6 0-.9.6-1.3 2.1-1.5v-7.1c0-.7-.4-1-1.1-1h-2.3c-.7-.2-1.4.3-1.6 1-.1.7-.5 1.4-1.1 2a54.8 54.8 0 0 1-4.9 3.5c-1.5.8-3.3.3-4.2-1.1l-.4-1.2-.2-2.1-.1-2.1H59c-.4 0-.8.2-1.1.5-.6.6-1.5.7-2.2.1l-.2-.2c-.3-.3-.6-.5-1-.5h-9.2c-.4 0-.7.2-.9.4-.4.8-1.4.9-2 .4l-.3-.3c-.2-.2-.5-.4-.9-.4h-18c-1.1 0-1.4.3-1.4 1.4v6.1l.1.8h1.9c.8 0 1.5.6 1.5 1.4 0 .8-.7 1.5-1.5 1.5h-2V46h1.9c.8-.1 1.5.5 1.6 1.4v.1c0 .8-.7 1.5-1.5 1.5h-2v7.3c0 .8.7 1 1.3 1h18c.4 0 .7-.2.9-.5.5-.7 1.5-.8 2.1-.2l.3.3c.3.3.6.4 1 .5h9.1c.4 0 .8-.2 1-.5.5-.6 1.3-.8 2-.3l.3.3c.3.4.8.6 1.2.5h9.7c2.3-.2 4.4-.2 6.6-.2zm-9.9-28.7 2.9-2-3.1-1.5.2 3.5zm8.5-23.8-8 16.5-.3.7 4.9 2.4 1.1-2.3 7.3-15c.5-.8.5-1.9 0-2.7a3.2 3.2 0 0 0-2.4-1.4c-1.1.1-2.1.8-2.6 1.8zM48.6 90.6v-3.5c0-.7.6-1.4 1.3-1.4h.1c.7 0 1.4.5 1.4 1.3v3.5c0 .8-.6 1.4-1.4 1.4-.8.1-1.4-.6-1.4-1.3zm.4-17.5c-.7 0-1.3-.5-1.4-1.3v-.1c-.1-.7.4-1.4 1.1-1.5h2.5c.7.1 1.2.7 1.2 1.4v.1c0 .7-.6 1.3-1.3 1.3h-1.7l-.4.1zm7.6-18c-.5-.2-1-.7-1.2-1.2l-.1-1.3c-.1-.8.5-1.5 1.3-1.6h.1c.8 0 1.5.7 1.5 1.5v.6h.1l-.2 1.2c-.2.5-.6.8-1.1.9l-.4-.1zm-13.4 0c-.7 0-1.3-.5-1.4-1.3v-1.3c0-1 .6-1.6 1.4-1.6.8 0 1.5.6 1.5 1.4v.6l-.1 1c-.1.7-.7 1.2-1.4 1.1v.1zm12.4-5.7a2 2 0 0 0-1-.5h-9.2c-.4 0-.7.2-1 .5-.5.7-1.4.8-2.1.3l-.3-.3-.8-.5c-1.1-.2-1.7-.7-1.6-1.5 0-.8.6-1.3 1.7-1.4l.4-.1V35.5l-.8-.1c-.7 0-1.3-.6-1.3-1.4-.1-.7.4-1.4 1.1-1.5h.1c.5 0 1-.3 1.4-.7.6-.7 1.5-.5 2.1.2.3.3.6.4.9.5h9.3c.3 0 .6-.2.9-.4.5-.7 1.4-.8 2.1-.4l.4.4c.2.2.5.4.9.4h1.5c.8 0 1.4.6 1.4 1.4 0 .8-.6 1.4-1.3 1.4h-2.2V46H60c1.1 0 1.7.5 1.7 1.4 0 .9-.6 1.5-1.7 1.5-.9 0-1.8-.1-2.6.8a1 1 0 0 1-.7.3c-.4 0-.8-.2-1.1-.6zm-10.8-3.5h10.4V35.5H44.8v10.4zm19.5 3c-.7-.1-1.2-.8-1.1-1.5 0-.7.5-1.3 1.2-1.3h2.5c.7 0 1.3.6 1.3 1.3v.1c.1.7-.5 1.4-1.2 1.4h-1.4v.1l-1.3-.1zm-29.9 0c-.7-.1-1.2-.7-1.2-1.4s.5-1.3 1.2-1.4h2.4c.8 0 1.4.6 1.4 1.4 0 .8-.6 1.5-1.3 1.5h-1.2l-1.3-.1zm-6.4 0c-.7 0-1.3-.6-1.3-1.3v-.1c0-.7.5-1.4 1.3-1.4h2.6c.7 0 1.3.6 1.3 1.4.1.7-.4 1.4-1.1 1.5h-.1l-1.3.1c-.5-.2-.9-.2-1.4-.2zm42.9 0c-.7 0-1.3-.6-1.3-1.3v-.1c0-.7.5-1.4 1.2-1.4h1.3l1.4.1c.7.1 1.2.6 1.2 1.3.1.7-.4 1.3-1 1.4h-.1l-1.4.1-1.3-.1zM34.4 35.4c-.7-.1-1.2-.7-1.2-1.3-.1-.7.3-1.3 1-1.4h2.9c.7.1 1.2.7 1.1 1.4 0 .7-.5 1.3-1.2 1.4h-1.4l-1.2-.1zm37.7 0h-1.2c-.7 0-1.3-.6-1.3-1.3-.1-.7.3-1.3 1-1.5h2.9c.7.1 1.2.7 1.1 1.4v.1c0 .7-.6 1.3-1.3 1.3h-1.2zm-44.1 0c-.7 0-1.3-.6-1.3-1.4-.1-.7.3-1.3 1-1.4h2.9c.7.1 1.2.7 1.1 1.4 0 .7-.5 1.3-1.2 1.4H28zm37.6 0h-1.3c-.7-.1-1.2-.6-1.2-1.3-.1-.7.3-1.3 1-1.4h3c.7.1 1.1.7 1 1.4v.1c0 .7-.5 1.3-1.2 1.3h-.5l-.8-.1zm-22.4-4.9c-.7 0-1.3-.6-1.3-1.3v-1.4c0-.8.6-1.5 1.4-1.5h.1c.8 0 1.5.7 1.5 1.5v.6l-.1 1.1c-.1.6-.7 1-1.3 1h-.3zm13.7-.1c-.5 0-1.3-.4-1.3-.7-.2-.9-.2-1.9 0-2.8.1-.3.9-.6 1.4-.6.9 0 1.2.7 1.2 2.1v.8c0 .7-.6 1.2-1.3 1.2z"></path></svg>