<svg xmlns="http://www.w3.org/2000/svg" viewBox="0 0 100 100"><path d="M51 96.9c.1-2.2.1-4.3-.2-6.5-.2.5-.7.2-.7.2s-.4.3-.7-.1c-.2 2.1-.3 4.3-.1 6.4h-3.5c.5-2.4 1.5-4.7 2.9-6.7-2.6 1-5 2.4-5.9.6-.3-.7-.4-1.4-.4-2.1l-.9-.1-.5.4-.6.4-.5 1.2a6 6 0 0 1-.9 1.5l-.8.3-.6.2-.6.1-2.1.3-1.8.2 1.5-1.3 1.2-1.1.9-.9c.3-.3.7-.5 1.1-.5l2.4-.3.4-.3.4-.3h-.2l-.7-.1-.9-.2-1-.2-1-.2-.9-.2-.9-.2-.6.3-.6.3-.6.9c-.3.6-.8 1.1-1.3 1.5a3 3 0 0 1-.8.2l-1.2.1h-2.2l-1.8-.1.1-.1.4-.2 1.2-.7 2.4-1.7c.3-.3.8-.4 1.2-.4l.9.1H34l.4-.2.4-.2h.1-.1l-.3-.1-.4-.1.2-.7.3.1.3.1.5.1.9.2.9.2 1 .2 1 .2.9.2.6.1h.2l.5.1.8.1c.1-1.1.4-2.2 1-2.2 1.8 0 4.6 2.2 6 3.3.2-.8.8-.4.8-.4.2-.1.6-.1.7.2l.1.2c1.4-1.1 4.1-3.2 5.8-3.2.7 0 1 1.3 1 2.6l.8-.1.4-.5.4-.5.1-1.3c0-.6.1-1.1.3-1.7l.5-.5.4-.3.4-.4 1.2-1.1.9-1-.3 1.8-.3 1.5-.3 1.2c-.1.4-.3.8-.7 1l-2 1.1-.3.4-.3.4h.2l.6-.1.9-.2 1-.2 1-.2.9-.2.9-.2.3-.6.3-.6-.1-1.1v-2l.4-.6.6-.8c.2-.3.5-.5.6-.8l.4-.6.5-.8c.6-.2.7-.4.7-.4v1.9l-.1 2.8c0 .4-.2.8-.5 1.1l-.7.5-1.1.8-.2.4-.2.4.3-.1.3-.1.2.7-.3.1-.3.1-.5.1-.9.2-.9.2-1 .2-1 .2-.9.2-.6.1h-.2l.4.3.4.3 2.4.3c.4 0 .9.2 1.1.5l.9.9 1.2 1.1 1.5 1.3-1.8-.2-2.1-.3-.6-.1-.6-.2-.8-.3c-.4-.4-.7-.9-.9-1.5l-.5-1.2-.6-.4-.5-.4.5-.1-.5.1-.9.1h-.1c0 .6-.2 1.1-.4 1.7-.9 1.6-3.1.5-5.6-.5 1.3 2 2.3 4.2 2.8 6.6l-3.7.1zm19-5.8-1.3-.1-.8-.2c-.5-.4-1-1-1.3-1.5l-.4-1.2h1.5l.9-.1c.4-.1.9.1 1.2.4l2.4 1.7 1.2.7.4.2.1.1H70zm-4-2.6-.6-.3-.6-.3.5-.1.4.2.4.2.4 1.2-.5-.9zm8.2-.4L72.8 87l-.9-1-.6-.2-.4-.1-.2-.1.2-.1-.2.1-.7.3-.7.3-.9.4-.9.3-.8.3-.8.3-.2-.7.7-.3.8-.3.9-.3.9-.3.7-.3.7-.3.2-.1.2-.1.8-.4.8-.4.9-.5 1.7-1 .5-.3.2-.1.1-.7.1-.6-.5-1.2-.5-1.6c.1-.6.3-1.1.6-1.7l.6-1.6.3-.9.1-.4.6 1.8.7 2.7c.1.4.1.8-.2 1.2l-.5.7-.8 1.1-.1 1 .7-.5 1.5-1.2a20 20 0 0 0 1.5-1.3l.5-.4.2-.2.1-.1-.2-.2v-1.4l-.7-1.1L79 74l.1-.7.2-1 .3-1.7.2-1.4.8 1.7a19.6 19.6 0 0 0 1.1 2.5c.2.4.2.8 0 1.2l-1 2v.9l.2-.2.5-.4 1.3-1.4L84 74l.5-.7-.1-.6-.1-.6-.7-.8c-.5-.5-.8-1-1.2-1.6V68l.1-1v-2l.3.4.7 1.1 1.5 2.3c.2.3.3.8.2 1.2l-.2.9c-.1.4 0 .6-.2 1.1l.1.5.1.5.2-.3.2-.3.6.4-.2.3-.2.3.5-.1.5-.1 1.2-.9.7-.6c.3-.3.8-.5 1.2-.4h2.9l1.4-.1.6-.1-.1.1-.3.2-1 .7-.7.5-1 .7-1.1.7c-.2.1-.5.3-.8.3a5 5 0 0 1-2-.5l-1-.4-.7.1-.7.1.3-.4-.3.4-.6.7-1.3 1.5-1.4 1.4-.5.5-.2.2h1l2.1-1.2c.4-.3.8-.4 1.2-.2a28.9 28.9 0 0 0 4.9.6l-1.5.9-1.9 1-1.2.5-.8.2c-.6-.1-1.1-.3-1.6-.6l-1.2-.7h-1.4l.4-.4-.2.5-.2.2-.5.4-1.5 1.3-1.6 1.2-.7.5 1 .2 1.4-.5.9-.4c.4-.2.9-.2 1.3 0a94.2 94.2 0 0 0 4.7 1.4l-.5.2-1.2.4-2 .7-2.1.4c-.6-.2-1.1-.5-1.5-.9-.6-.4-1-.9-1-.9l-.7-.1-.7-.1-.2.1-.6.4-1.7 1-.9.5-.8.4-.8.4.9.3 2.3-.5c.4-.1.9-.1 1.3.2l2.6 1.3 1.3.5.6.2c-.6.1-1.1.3-1.7.3l-.9.1-.6.1-.7.1-1.6.1c-.1.2-.2.2-.4.1zM41 87.8l-.3-.4-.3-.4-2-1.1c-.4-.2-.6-.6-.7-1l-.3-1.2-.3-1.5-.3-1.8s.5.4.9 1l1.2 1.1.4.4.4.3.5.5c.2.5.3 1.1.3 1.7l.1 1.3.4.5.4.5-.4.1zm-17.3-.2-.7-.1-.6-.1-.9-.1a57 57 0 0 1-1.7-.3l.6-.2a29.6 29.6 0 0 0 3.9-1.8c.4-.2.8-.3 1.3-.2l2.4.5.9-.3.2.1-.2-.1-.8-.4-.8-.4-.9-.5-1.7-1-.6-.4-.2-.3-.7.1-.7.1-1 .9c-.4.4-1 .7-1.5.9-.7 0-1.4-.2-2.1-.4l-2-.7-1.1-.4-.5-.2 1.9-.5c.9-.2 1.9-.5 2.8-.9.4-.2.9-.2 1.3 0l.9.4 1.4.5 1-.2-.7-.5-1.6-1.2-1.5-1.3-.5-.5H19l-.4-.4.4.4h-1.4l-1.2.7c-.5.3-1 .5-1.6.6l-.8-.2-1.2-.5-1.9-1-1.5-.9 2-.2 1.6-.2 1.3-.2c.4-.1.9 0 1.2.2l2.1 1.2h1l-.2-.2-.5-.5-1.4-1.4-1.3-1.5-.6-.7-.7-.1-.7-.1-1 .4c-.6.3-1.3.4-2 .5a3 3 0 0 1-.8-.4l-1-.7-1-.7-.7-.5-1-.7-.3-.3-.1-.1.6.1 1.4.1h2.9c.4 0 .9.1 1.2.4l.7.6 1.2.9.5.1.5.1-.2-.3-.2-.3-.5-.7-1-1.5-.5-.8-.4-.7-.4-.7-.6-.2H10l-1.3.3c-.6.1-1.2.2-1.8.1l-1.7-1.3-.9-.9-.6-.6-.9-.9-.3-.4.6.2 1.4.3 2.9.5c.4 0 .9.3 1.1.6l1.6 1.8.9.3v.1-.1l-.4-.8c-.2-.5-.6-1.1-.8-1.8L9 63.3l-.2-.6-.1-.2-.6-.3-.6-.3-1.3.1c-.6.1-1.2 0-1.8-.2L3 60.3c-.5-.7-1-1.5-1.3-1.7l-.7-1-.3-.6 1.8.8 2.8.9c.4.1.8.4 1 .8l.5.8.8 1.2.9.4-.3-.9-.6-1.9-.5-1.9-.1-.6v-.2l-.5-.4-.5-.4-1.3-.1c-.6 0-1.2-.2-1.7-.4-.5-.5-.9-1.1-1.2-1.7l-1-1.9-.8-1.8a43.3 43.3 0 0 0 4.3 2.4c.4.2.7.5.9.9.2.5.4 1.2 1 2.2l.8.6-.2-.9-.2-2-.2-2V50l-.5-.5-.5-.5-1-.3c-.7-.1-1.3-.4-1.9-.8-.4-.6-.7-1.2-.9-1.9l-.7-2-.5-1.7 1.5 1.3 2.3 1.7c.4.2.6.6.7 1l.6 2.3.7.7V46l.1-1.7.1-.8L6 43l-.4-.6-1.2-.5a6 6 0 0 1-1.5-.9l-.1-.6-.3-1.2-.3-2.1-.2-1.8 1.3 1.5L4.4 38l.9.9c.3.3.5.7.5 1.1l.3 2.4.3.4.3.4V43l.1-.6.2-1 .2-1 .2-1 .2-.9.2-.9.1-.5.1-.2.2-.6.8-1.9.4-1 .4-.8.4-.8.1-.2.1-.2.4-.8.4-.8.5-.9 1-1.7.4-.6.1-.2.3-.4.4-.5.6.4-.4.5-.3.4-.1.2-.3.5-1 1.7-.5.9-.4.8-.4.8.9-.3 1.6-1.6c.3-.3.7-.4 1.1-.4l2.8.3 1.3.2.5.1-1.2.6-.6.3-.4.2-.4.3-1.6.8-1.7-.2-1.3-.3-.6.2-.4.1h-.3l-.4.8-.4.8-.4 1-.7 1.8-.2.6-.1.2-.1.5.1-.5.4-.2.4-.2.8-1.1.5-.7c.2-.3.6-.5 1.1-.5l2.8-.1h1.9l-.3.2-.8.5-.6.4-.8.6-.8.6-.6.4h-1.7L9.6 37l-.6.3-.6.3-.2.9-.2.9v1.2l-.2 1-.2.9-.1.6v.2l.4-.3.4-.3 1.1-2c.2-.4.5-.6 1-.7l1.2-.3 1.5-.3 1.8-.3s-.4.5-1 .9l-1.1 1.3-.4.4-.3.4-.5.5c-.5.2-1.1.3-1.7.3l-1.3.1-.5.4-.5.4-.1.8-.1 1.7V51l.1 1.9.2 1.9.2.9.1.5v.2l.1.6a27.9 27.9 0 0 0 1 3.8l.3.8.2.5.1.2.2.6.7 1.8a25.4 25.4 0 0 1 1.2 2.6l.1.2.1.2.4.7.4.7.5.8 1 1.4.5.6.2.3.2.3.1-.5.1-.5-.4-1.3-.2-.9c-.1-.4-.1-.8.2-1.2l1.5-2.3.7-1.1.3-.4v2l.1 1V69c-.3.6-.7 1.1-1.2 1.6l-.7.8-.1.7-.1.6.5.7 1.3 1.5 1.3 1.4.5.5.2.2v-1c-.4-1.1-.8-1.6-1-2-.2-.4-.2-.8 0-1.2l.5-1.1.6-1.4.8-1.7.2 1.3.3 1.7.2 1 .1.7c-.2.5-.4 1.1-.8 1.5l-.7 1.1v1.4l-.3-.2.3.2.2.2.5.4 1.5 1.3 1.5 1.2.7.5.4.3.2.1.5.4 1.7 1 .9.5.8.4.8.4-.3-.9-1.6-1.6c-.3-.1-.4-.5-.3-.9l.3-2.8.2-1.3.1-.5.6 1.2.3.6.2.4.3.4.8 1.6-.2 1.7-.3 1.3.3 1.1.1.2h-.1.1l.7.3.7.3.9.3.9.3.8.3.7.3-.3.7-.8-.3-.8-.3-.9-.3-.9-.4-.7-.3-.7-.3-.2.1-.4.1-.7.3-.9 1c-.4.5-.8.8-1.4 1.1h-.5l-1.5-.1zm5.7-3.2zm5.6 2.1-.2-.4-.2-.4-1.1-.8-.7-.5c-.3-.2-.5-.6-.5-1.1l-.1-2.8v-1.9l.2.3.5.8.4.6.6.8.6.8.4.6v2l-.1 1.1.3.6.3.6-.4-.3zm35.4-1.8.1-.4.2-.6-.3-1.3c-.2-.5-.2-1.1-.2-1.7a8 8 0 0 1 .8-1.6l.3-.4.2-.4.3-.6.6-1.2.1.5.2 1.3.3 2.8c.1.4-.1.8-.4 1.1L71 83.8l-.3.9-.2.1-.2.1.1-.2zm-46.5-3.6-.1-1L23 79l-.5-.7c-.3-.3-.3-.8-.2-1.2l.7-2.7.6-1.8.1.4.3.9.6 1.6c.3.5.4 1.1.6 1.7l-.5 1.6-.5 1.2.1.6.1.7-.5-.2zm61.5-8.7.5-.6 1-1.4.5-.8.4-.7.4-.7-.2-.6-.3-.6-1-.9-1.2-1.2a57 57 0 0 0-.3-1.7l-.1-1-.1-.7-.2-1.3.4.4.9.9a30 30 0 0 1 1.9 2.1c.3.3.4.7.4 1.1l-.3 2.2.3.9.4-.8.8-1.8.7-1.8.2-.6.1-.2.2-.5.3-.8.5-1.9.4-1.9.1-.6v-.2l-.4-.5-.4-.5-1.2-.5-1.5-.8-.8-1.6a28.4 28.4 0 0 0-1.4-2.7 169.7 169.7 0 0 0 2.9 1.7l1.1.6c.4.2.6.5.7 1l.4 2.2.6.8.2-.9.2-1.9.1-1.9v-.9l-.5-.5-.1-.8-1-.2a6 6 0 0 1-1.9-.6l-1-1.4-.9-1.4-.8-1.1 1.8.6 2.6 1c.4.1.7.4.9.8.2.4.3 1.1.8 2.1l.7.7v-3.2l-.1-1.7-.1-.8-.1-.5v-.2l-.1-.6-.2-.9-.2-1-.2-1-.2-.9-.2-.9-.6-.3-.6-.3-1.3.1h-1.7a2 2 0 0 1-.6-.4l-.8-.6-1.3-.8-.6-.4-.8-.5-.3-.2h1.9l2.8.1c.4 0 .8.2 1.1.5l.5.7.8 1.1.4.2.4.2-.1-.2-.2-.6-.7-1.8-.4-1-.4-.8-.4-.8.1-.1-.4-.1-.6-.2-1.3.3c-.6.2-1.1.2-1.7.2a12 12 0 0 1-1.6-.8l-.4-.3a.8.8 0 0 0-.4-.2l-.7-.3-1.2-.6.5-.1 1.3-.2 2.8-.3c.4-.1.8.1 1.1.4l1.6 1.6.9.3.1.2.1.2-.1-.3-.1-.2-.4-.8-.4-.8-.5-.9-1-1.7-.3-.5-.1-.2-.3-.4.3.4-.7-.1-.7-.1-1 .4 1-.8.9.1-.4-.5V26l-.3-.5-1.1-1.4-1.1-1.3-.5-.6h-1.4l-1.1.7-1.5.8-.7-.1-1-.2-1.7-.3-1.3-.2 1.7-.8 1.4-.6 1.1-.5c.4-.2.8-.2 1.2 0l2 1h1l-.2-.2-.5-.5-1.4-1.3-1.5-1.3-.7-.5H77l-.7.1-1 .9-1.4 1h-1.7l-1-.1h-2l.5-.3 1.1-.7 2.3-1.5c.3-.3.8-.3 1.2-.2l.8.2 1.3.4.5-.1.5-.1.2.2-.2-.2-.2-.1-.5-.4-1.6-1.1-.9-.6-.8-.5-.8-.4-.6.2-.6.2-.9 1-1.2 1.2-1.7.3-1 .1-.7.1-1.3.2.4-.4.9-.9a30 30 0 0 1 2.1-1.9c.3-.3.7-.4 1.1-.4l2.2.3.9-.3.2.1H72l-.8-.4-1.8-.8-1.8-.7-.6-.2-.2-.1-.5-.2-.6-.2.2-.7-.2.7-.2-.1-.5-.2-1.7-.5-1.3-.3c-1.4.5-2.9.3-4.1-.4-1.4-.9-2.9-1.5-4.5-1.8l5.2-.8c1.2-.2 3.7 1.8 4.4 2.4l.6.1 1.7.5.6.2.2.1.6.2.5.2.2.1.6.2c.5.2 1.2.4 1.8.8l1.8.8.8.4-.3-.9-1.8-1.6c-.4-.3-.6-.7-.6-1.1l-.5-2.9-.3-1.4-.2-.6.4.4.9.9.6.6.9.9 1.3 1.7c.1.6 0 1.2-.1 1.8l-.3 1.3.2.6.2.6-.2-.1.2.1.8.5.8.5.9.6 1.6 1.1.5.4.2.1.4.3.7.6 1.5 1.3 1.4 1.4.5.5.2.2.4.4.5.6 1.1 1.3 1.1 1.4.4.5.1.2-.6.4.6-.4.4.5.3.4.1.2.4.5 1 1.7.5.9.4.8.4.8.1.2.1.2.4.8.4.8.4 1 .7 1.9.2.6.1.2.1.5.2.9.2.9.2 1 .2 1 .2.9.1.6v.2l.1.5.1.8.1 1.7v3.3l.7-.7c.4-1.1.5-1.8.6-2.3.1-.4.3-.8.7-1l2.3-1.7 1.5-1.3-.5 1.7-.7 2c-.2.7-.5 1.3-.9 1.9-.6.4-1.2.6-1.9.8l-1 .3-.5.5-.5.5V50v1.4l-.2 2a15 15 0 0 0-.2 2l-.2.9.5.5v.2l-.1.6-.5 1.9-.6 1.9-.3.9-.2.5-.1.2-.2.6c-.2.5-.4 1.2-.8 1.8l-.8 1.8-.4.9.9-.3 1.6-1.8c.3-.4.7-.6 1.1-.6l2.9-.5 1.4-.3.6-.2-.4.4-.9.9-.6.6-.9.9c-.5.5-1 .9-1.7 1.3-.6.1-1.2 0-1.8-.1l-1.3-.3-.6.2-.6.2.1-.2-.1.2-.4.7-.4.7-.5.8-1 1.5-.5.6-.5-.4zm-73.6-4.8-.1-.2.3-.9-.3-2.2c-.1-.4.1-.8.4-1.1l1.9-2.1.9-.9.4-.4-.2 1.3-.1.7-.1 1c0 .6-.1 1.2-.3 1.7-.3.5-.7.9-1.2 1.2l-1 .9-.2.6-.2.6-.2-.2zm79.7-5.3.9-.4.8-1.2.5-.8c.2-.4.6-.7 1-.8l2.8-.9 1.8-.8-.3.5-.7 1a19.6 19.6 0 0 1-2.7 3.2c-.6.2-1.2.2-1.7.2l-1.3-.1-.6.3-.6.3.1-.5zm-1.2-.3-.3-.6-1.1-.7-1.4-1L87 58l-.5-1.6-.3-.9-.1-.4 1.5 1.1 2.2 1.7c.3.2.6.6.6 1.1v2.3l.4.9-.2.5-.3-.7zm-81-.3.4-.8v-2.3c0-.4.2-.8.6-1.1l2.2-1.7 1.5-1.1-.1.4-.3.9-.5 1.6-.5 1.7c-.4.4-.9.8-1.4 1L10 61l-.3.6-.3.6-.1-.5zm83.8-5.5.8-.6 1-2.2c.1-.4.4-.8.9-.9l1.2-.6 1.4-.8 1.7-1-.7 1.6-1 1.9c-.3.6-.7 1.2-1.2 1.7-.5.3-1.1.4-1.7.4l-1.3.1-.6.4-.5.4v-.4zm-85.4-.5.6-.8.4-2.2c.1-.4.3-.8.7-1l1.1-.6 1.3-.8 1.6-.9-.7 1.2-.7 1.5a8 8 0 0 1-.8 1.6l-1.5.8-1.2.5-.4.5-.4.5v-.3zm-.6-6.2.7-.7.8-2.1c.1-.4.4-.7.8-.8l2.6-1 1.8-.6-.8 1.1-.9 1.4-1 1.4a6 6 0 0 1-1.9.6l-1 .2-.5.5-.6.5v-.5zm85-5.6-.5-.4-1.3-.1a5 5 0 0 1-1.7-.3l-.5-.5-.3-.4-.4-.4-1.1-1.3-1-.9 1.7.4 1.5.3 1.2.3c.4.1.8.3 1 .7l1.1 2 .4.3.4.3.1.5-.6-.5zm1.2-.2.3-.4.3-.4.3-2.4c0-.4.2-.9.5-1.1l.9-.9 1.1-1.2 1.3-1.5-.2 1.8-.3 2.1-.1.6-.2.6-.3.8c-.4.4-.9.7-1.5.9l-1.2.5-.4.6-.4.5-.1-.5zm-1.4-6.2.2-.4.2-.4v-1.5l-.1-.9c-.1-.4.1-.9.4-1.2l1.7-2.4.7-1.2.2-.4.1-.1v3.9l-.1 1.2-.2.8c-.4.5-.8.9-1.3 1.2l-1.1.7-.3.6-.2.6-.2-.5zM7.6 37l-.3-.6-1.1-.7c-.5-.3-1-.7-1.3-1.2a3 3 0 0 1-.2-.8l-.1-1.2v-3.9l.1.1.3.3.7 1.2 1.7 2.4c.3.3.4.8.4 1.2l-.1.9v1.5l.2.4.2.4-.1.6-.4-.6zm82.1-5.1-.1-.2.3-.9-.5-2.3c-.1-.4-.1-.9.2-1.3l1.3-2.6.5-1.3.2-.6c.1.6.3 1.1.3 1.7l.2.9.1.6.1.7c.1.7.2 1.4.1 2.1l-1.1 1.4-1 .9-.3.5-.2.4-.1.2s.1-.1 0-.2zm-79.6-.4-.1-.4-.2-.6-1-.9c-.5-.4-.8-.8-1.1-1.4-.1-.7 0-1.4.1-2.1l.1-.7.1-.6.1-.8.3-1.7.2.6a29.6 29.6 0 0 0 1.8 3.9c.2.4.3.8.2 1.3l-.5 2.4.3.9-.1.2-.1.2-.1-.3zm71.8-3.6c-.6-.1-1.1-.3-1.7-.6a20 20 0 0 0-1.6-.6l-.9-.3-.4-.1 1.8-.5 2.7-.7c.4-.1.8-.1 1.2.2l.7.5 1.1.8-1 .8-1.9.5zm-65.7-1-1-.4-.6.1-.7.1.3-.4.9-.1 1.1-.8.7-.5c.3-.2.8-.3 1.2-.2l2.7.7 1.8.5-.4.1-.9.3-1.6.6c-.5.3-1.1.4-1.7.6l-1.8-.6zm70.2-.6.2-1 1-.8-.7.8-.1.7-.1.7-.3-.4zm-73.2-.7-.1-.7-.7-.8c-.5-.5-.8-1.1-1.1-1.7 0-.7.2-1.4.4-2.1l.7-2 .4-1.2.2-.5.5 1.9c.2.9.5 1.9.9 2.8.2.4.2.9 0 1.3l-.4.9-.5 1.4-1-.8 1 .8.2 1-.3.4-.2-.7zm.8-.3.1-.2.3-.5a62.5 62.5 0 0 1 2.2-2.7l.5-.6V20l-.7-1.2c-.3-.5-.5-1-.6-1.6l.2-.8.5-1.2 1-1.9.9-1.5.2 2 .2 1.6.2 1.3c.1.4 0 .9-.2 1.2L17.6 20v1l.2-.2.5-.5 1.4-1.4 1.5-1.3.7-.6.1-.7.1-.7-.5-1.3c-.2-.5-.4-1.1-.4-1.7l.3-.8.7-1.1.7-1 .5-.7.7-1c.3.1.4 0 .4 0l.1-.1-.1.6-.1 1.4a14 14 0 0 0 0 2.9c.1.4-.1.9-.4 1.2l-.6.7-.9 1.2-.1.5-.1.5.2-.2.5-.4 1.6-1.1.9-.6.8-.5.8-.5.2-.6.2-.6-.3-1.3c-.2-.6-.2-1.2-.1-1.8l1.3-1.7.9-.9.6-.6.9-.9.4-.4-.2.6-.3 1.4-.5 2.9c0 .4-.2.8-.6 1.1l-1.8 1.6-.3.9.8-.4c.5-.3 1.1-.6 1.8-.8l1.8-.8.6-.2.2-.1.3-.6.3-.6-.1-1.1c-.1-.7 0-1.4.2-2l1.5-1.4 1.7-1.2 1-.7.5-.3s-.1.8-.5 1.8a13 13 0 0 0-.9 2.8c-.1.4-.4.8-.8 1l-.8.5-1.2.8-.4.9.6-.2.2-.1.6-.2 1.7-.5.5-.1c.7-.6 3.2-2.7 4.4-2.4 3.2.6 5.2.8 5.2.8-1.7.3-3.2.9-4.6 1.8-1.3.7-2.8.8-4.1.4l-1.3.3-1.7.5-.5.2-.2.1-.6.2-.5.2-.2-.1-.6.2-1.8.7-1.8.8c-.4.4-.8.5-.8.5l-.2.1.2-.1.9.3 2.2-.3c.4-.1.8.1 1.1.4l2.1 1.9.9.9.4.4-1.3-.2-1.7-.2c-.6 0-1.2-.1-1.7-.3-.5-.3-.9-.7-1.2-1.2l-.9-1-.6-.2-.6-.2.2-.1-.2.1-.8.4-.8.5-.9.6-1.6 1.1-.5.3-.2.1.5.1.5.1 1.3-.4.9-.2c.4-.1.8-.1 1.2.2l2.3 1.5 1.5 1.1h-2l-1 .1h-1.7l-1.4-1-1-.9-.7-.1-.7-.1-.7.5-1.5 1.3-1.4 1.3-.4.5-.2.2h1l2-1c.4-.2.8-.2 1.2 0l1.1.5 1.4.6 1.7.8-1.3.2-1.7.3-1 .2-.7.1c-.5-.2-1.1-.4-1.5-.8l-1.1-.7H18l.4-.4-.4.4-.5.6-1.1 1.3-1.1 1.4-.3.5-.1.2-.9-.4zm72.6 0-.5-1.4-.4-.9c-.2-.4-.2-.9 0-1.3l.9-2.8.5-1.9.2.5.4 1.2.7 2c.2.7.4 1.4.4 2.1-.2.6-.6 1.2-1.1 1.7l-1.1.8zm-4.2-3.9v-1l-1.2-2.1c-.3-.4-.4-.8-.2-1.2l.2-1.3.2-1.6.2-2 .9 1.5 1 1.9.5 1.2.2.8c-.1.6-.3 1.1-.6 1.6l-.7 1.2v1.4l-.5-.4zm-4.7-4.2-.1-.5-.1-.5-.9-1.2-.6-.7c-.3-.3-.5-.8-.4-1.2v-2.9l-.1-1.4-.1-.6.1.1.3.3.7 1 .5.7.7 1 .7 1.1c.1.2.3.5.3.8 0 .6-.1 1.2-.4 1.7l-.5 1.2.1.7.1.7-.3-.3zm-17.3-1.9 1.7-2.2c.2-.3.6-.6 1.1-.5h2.3l.8-.4.5.2-.6.3-.6.3-.5.9c-.3.6-.7 1.1-1.2 1.6l-1.7.5-1.6.5-.9.3-.4.1 1.1-1.6zm-20.1.9-.9-.3-1.6-.5-1.7-.5c-.5-.5-.9-1-1.2-1.6l-.6-.9-.6-.3-.6-.3.5-.2.8.4.4 1.2-.4-1.2h2.3c.4 0 .8.2 1.1.6a89.8 89.8 0 0 1 2.8 3.7l-.3-.1zm26.3-4.9-.4-.9-1.2-.8-.8-.5c-.4-.2-.7-.6-.8-1l-.9-2.8-.8-1.8.5.3 1 .7a19.6 19.6 0 0 1 3.2 2.7c.2.7.2 1.3.2 2l-.1 1.1.3.6.3.6-.5-.2z"></path></svg>