<svg xmlns="http://www.w3.org/2000/svg" viewBox="0 0 100 100"><path d="M51.8 90.4c.1-1.2.3-2.4.5-2.4 5.3.7 16.4-4.1 21.9-8.2a39.7 39.7 0 0 0 14.1-42.9 39.8 39.8 0 0 0-10.6-16.1 64 64 0 0 0-8.1-6.5l.1.1s-1.1 1.3-2 .9c-2.1-.8-2.4-1.7-3.7-3.6-.6-1-1.4-1.9-2.3-2.7 1.4.1 2.8.2 4.2 0 .6-.2 2.4 1.2 3.3 1.5.9.3 1.2 2.4 1 2.4-.7-.1-1.3-.4-1.8-.8-.9-.6-2-1-3.1-1.3l.9.6.5.3a58.2 58.2 0 0 1 16.2 13.8 37.4 37.4 0 0 1 7.4 16.8 41.7 41.7 0 0 1-20.1 40.8c-4.5 2.6-12.6 7.2-18.4 9.6v-2.3zM65 10.7zm-16.9 82c-5.8-2.4-13.9-7-18.4-9.6a40 40 0 0 1-19.4-26.5A36.2 36.2 0 0 1 17 25.5c4.6-5.5 10-10.2 16.1-13.9l.5-.3.9-.6a12 12 0 0 0-3.1 1.3c-.5.4-1.2.7-1.8.8-.1 0 .1-2.1 1-2.4.9-.3 2.7-1.7 3.3-1.5h4.2c-.9.8-1.7 1.7-2.3 2.7-1.3 2-1.6 2.8-3.7 3.6-.9.3-2-.9-2-.9l.1-.1a62.3 62.3 0 0 0-8.1 6.5c-4.8 4.4-8.5 10-10.6 16.1-1.5 5-2 10.2-1.4 15.3a39.7 39.7 0 0 0 15.7 27.7c5.5 4.1 16.6 8.9 21.9 8.2.2 0 .4 1.2.5 2.4.1 1.2.1 2.4-.1 2.3 0 .1 0 0 0 0zm-13.2-82zm39.3 82h-.5l-.5-.1-.5-.1-.5-.1-1-.2-.9-.2-.8-.1-.6-.2-.5-.4-.7-1.2-.3-1.2v-.5l.7.1.9.1 1 .2.9.3.3.1.4.1.4.1h3l2.2-.3.7-.1.3-.1h-2.9l-.7-.1-1.4-.4-1.5-.8-.8-.4-.8-.4-1.2-.7-.5-.3.3-.4.3-.4.4-.4.5-.4.5-.4.6-.3.6-.1 2.4.2.5.1.5.1.4.1.4.2a26 26 0 0 1 3.8 2.1l1.2.6 1.1.4.5.1.5.1.9.1 1.2.1h.3l-.4.2-.8.5-.6.3a2 2 0 0 0-.6.4l-.7.4-.7.4-2.9 1.5-.6.3-.5.3-.4.2-.3.2-.6.3-.8.1h-1.2zm-49.4 0-.8-.1-.6-.3-.3-.2-.4-.2-.5-.3-.6-.3a27 27 0 0 1-2.9-1.5l-.7-.4-.7-.4a2 2 0 0 1-.6-.4l-.6-.3-.9-.5-.4-.2h.3l1.2-.1.9-.1.5-.1.5-.1 1.1-.4 1.2-.6 2.1-1.2 1.7-.9.4-.2.4-.1.5-.1.5-.1 2.4-.2.6.1.6.3.5.4.5.4.4.4.3.4.3.4-.5.3-1.2.7-.8.4-.8.4-1.5.8c-.4.2-.9.4-1.4.4-.3.2-.5.2-.7.2h-2.9l.3.1.7.1 2.2.3h3l.4-.1.4-.1.3-.1.9-.3 1-.2.9-.1.7-.1v.5l-.3 1.2c-.1.4-.4.8-.7 1.2l-.5.4-.6.2-.8.1-.9.2-1 .2-.5.1-.5.1-.5.1h-1l-.6-.1zm57.5-9.6-.6-.1-1-.7-.7-.8-.2-.4.6-.3.8-.3.9-.3.5-.1h.4l.6-.1.8-.3 1-.4.5-.3.3-.1.3-.1 1-.6.8-.5.6-.4.2-.1-.8.3-.5.3-.5.3-.3.1-.3.1-.6.2-1.3.2h-4.9l.1-.4.4-1c.2-.8.8-1.4 1.4-1.8l.6-.2.5-.2 1-.3.9-.2.8-.1h.8l.9.1 1 .1 1.2.1h2.3a5 5 0 0 0 1.7-.3l1-.3.3-.1-.8 1-1.7 2-1.9 2.1-1.2 1.5c-.3.4-.6.6-1 .8l-.8.3-.9.3-.5.1-.5.1-.9.2-.8.2-.7.2-.8.2zM17.1 83l-.7-.2-.8-.2-.9-.2-.5-.1-.5-.1-.9-.3-.8-.3c-.4-.2-.8-.5-1-.8l-1.2-1.5-1.9-2.1-1.7-2-.8-1 .3.1 1 .3 1.7.3h2.3l1.2-.1 1-.1.9-.1h.8l.8.1.9.2 1 .3.5.2.6.2c.7.4 1.2 1.1 1.4 1.8l.4 1 .1.4h-4.9c-.4 0-.9 0-1.3-.2l-.6-.2-.3-.1-.3-.1-.5-.3-.5-.3c-.3-.1-.5-.3-.8-.3l.2.1.6.4.8.5 1 .6.3.1.5.3 1 .4.8.3.6.1h.5l.4.1.9.3.8.3.6.3-.2.4-.7.8-1 .7-.6.1-.5-.1zm52.7-1.3.3-.5.2-.4.1-.2.1-.2.5-1.1.3-1.5.1-.9v-1.7l-.1-.7-.1-.6v2.5l-.1.6-.1.3-.1.3-.2.5-.5 1.1-.1.3-.2.3-.3.6-.5 1-.2.4-.2-1.1-.2-1.1-.2-1.2-.2-1v-.6l.1-.5.3-.6.3-.5.2-.4.2-.4.9-2 .7-1.8.2-.6.1-.2.3.9.4.8.7.8c.3.2.5.5.6.8l.2.5.1.5.1 1v.8l.1.8.1 1.1v1.6l-.2.2-.4.3-.3.2-.3.2-.3.2-.3.2-.3.2-.3.2-.3.2-.3.2-.3.1-.3.1-.4.1.1-.1zm-39.8.1-.3-.1-.3-.1-.3-.2-.3-.2-.3-.2-.3-.2-.3-.2-.3-.2-.3-.2-.3-.3-.4-.3-.2-.2v-1.6l.1-1.1.1-.8v-.8l.1-1 .1-.5.2-.5.6-.8.7-.8.4-.8.3-.9.1.2.2.6.7 1.8.9 2 .2.4.2.4.3.5.3.6.1.5v.6l-.2 1-.2 1.2-.2 1.1-.2 1.1-.2-.4-.5-1-.3-.6-.2-.3-.1-.3-.5-1.1-.2-.5-.1-.3-.1-.3-.1-.6v-2.5l-.1.6-.1.7v1.7l.1.9.3 1.5.5 1.1.1.2.1.2.2.4.3.5.1.2-.4-.1zm46.9-8.2-.5-.9-.6-1c-.3-.4-.5-.9-.6-1.4v-.5l.1-.7.1-.6.1-.4.1-.5.4-2.2.1-.5.1-.5.1-.5v-1.2l.5.8c.3.5.8.9 1.3 1.2.3.1.5.3.7.6l.5.8.3.9.2.7.1.3.1.4.3 1 .3.9.1.5-1.1 1.8-.5.6-.5.5-.4.4-.2.1-.1.1v-.2l.1-.6.3-1.9v-1.1l-.1-.4-.4-1.6-.2-.7-.1-.3-.1-.3-.2-.6.2.8.2 1 .1.6v1.7l-.2 1.2-.2 1.3-.2 1-.1.3v.1s.2-.5-.1-1zm-54.3.8-.1-.3-.2-1-.2-1.3-.2-1.2v-1.7l.1-.6.2-1 .2-.8-.2.6-.1.3-.1.3-.2.7-.4 1.6-.1.4v1.1l.3 1.9.1.6v.2l-.1-.1-.2-.1-.4-.4-.5-.5-.5-.6c-.5-.5-.8-1.1-1.1-1.8l.1-.5.3-.9.3-1 .1-.4.1-.3.2-.7.3-.9.5-.8.7-.6c.5-.3 1-.7 1.3-1.2l.5-.8v1.7l.1.5.1.5.4 2.2.1.5.1.4.1.6.1.7v.5c-.1.5-.4.9-.6 1.4l-.6 1-.5.9-.5.9h.5zm67.7-4.3c-.7-.3-1.2-.7-1.1-.7l.4-.4.6-.5c.4-.4.9-.7 1.4-.9l.5-.3.6-.5.7-.7.7-.8.7-.8.6-.7.5-.7-.6.5-.7.8-.9.8-1.1.6a7 7 0 0 0-1.3.5l-.7.3-.7.3-1.1.4-.4.2v-1.3l.2-1.1.2-.5.3-.4.8-.8.4-.3.4-.3 1.4-.8 1.6-.4 2-.4 2-.7.8-.4c.2-.1.5-.2.6-.4l.8-.6.2-.2-.2.3-.3.7-.9 2.2-1.1 2.4-.4.9-.2.6c-.1.4-.4.7-.7 1l-.6.5-.3.3-.3.3-1.4 1-1.1.9-.5.3-.5.1h-.1l-1.2-.3zm-81.7.2-.5-.1-.5-.3-1.1-.9L5 68l-.3-.3-.3-.3-.6-.5-.7-1-.2-.6-.4-.9L1.4 62a17.1 17.1 0 0 1-1.2-2.9l-.2-.3.2.2.8.6.6.4.8.4 2 .7 2 .4 1.6.4c.5.2 1 .4 1.4.8l.4.3.4.3.8.8.3.4.2.5.2 1.1v1.3l-.4-.2-1.1-.4-.7-.3-.8-.3-1.3-.5c-.4-.1-.8-.3-1.1-.6l-.9-.8-.7-.8-.6-.5.5.7.6.7.7.8.7.8.7.7.6.5.5.3c.5.2 1 .5 1.4.9l.6.5.4.4c.1.1-.4.5-1.1.7a2 2 0 0 1-1.1.3zM84 65.1l-.5-.5-1.4-1.4-.8-1.1-.1-.5v-2.1l-.1-2.1-.1-1v-.9l-.1-.6v-.2l.6.6c.4.4.9.6 1.4.8a2 2 0 0 1 1.4 1l.5.7.3.6.8 1.4.6 1.2-.2.6-.5 1.2-1 1.9V64l-.1-.8-.1-1-.1-.6-.2-.7-.3-.7-.2-.3-.2-.3-.4-.6-.3-.5a3 3 0 0 0-.3-.4l.3.7.4.9.2.5.2.5.2 1 .2 2.3.1.9v.4l-.2-.2zm-68.2.1v-.3l.1-.9.2-2.3.2-1 .2-.5.2-.5.4-.9.3-.7-.3.4-.3.5a2 2 0 0 1-.4.6l-.2.3-.2.3-.3.7-.2.7-.1.6-.1 1-.1.8v.7a7 7 0 0 1-1-1.9l-.5-1.2-.2-.6.6-1.2a38 38 0 0 1 1.7-2.7 2 2 0 0 1 1.4-1c.5-.1 1-.4 1.4-.8l.6-.6v.2l-.1.6v.9l-.1 1-.1 2.1v2.1l-.1.5-.8 1.1-1.4 1.4-.5.5-.2.2-.1-.1zm77.8-9.7.1-.2.1-.3.3-.7.4-.7.6-.6.4-.4.4-.7.9-1.7.2-.5.2-.4.2-.4.1-.4.2-.5.1-.2-.4.7-.2.4-.2.5-.6 1a3 3 0 0 1-.8.8 4 4 0 0 0-1 .9l-1.1.9-.5.4-.4.3-.4.3-.1-.4-.1-.4-.1-.5-.1-1.1v-.5l.2-.5.5-.9.3-.4.3-.4 1-1.1 1.2-.9.7-.5.4-.3.4-.3.4-.3.4-.3.7-.7.6-.7.2-.3.2-.3.3-.5.2-.4.1-.2-.1 1.2v1.2l-.1.7v.7l-.1 1.2-.1 1.2-.1 1.6c-.2.9-.5 1.7-1.1 2.4l-1.7 2.5c-.4.6-1.1.9-1.8.9-.8.1-1.3-.1-1.2-.2zm-88.3.3c-.7.1-1.4-.3-1.8-.9l-1.7-2.5C1.2 51.7.9 50.9.7 50l-.1-1.6-.1-1.2L.3 46v-.7l-.1-.7v-1.2l-.2-1 .1.3.2.4.3.5.2.3.3.2.6.7.7.7.4.3.4.3.4.3.4.3.7.5L6 48l1 1.1.2.4c0 .2.2.3.3.4l.5.9.2.5v.5l-.1 1.1-.1.5-.1.4-.1.2-.3-.3-.4-.3-.5-.4-1.1-.9-1-.9a3 3 0 0 1-.8-.8l-.6-1-.3-.4-.2-.4-.4-.7.1.2.2.5.1.4.2.4.2.4.2.5.9 1.7.4.7.4.4.6.6.4.7.3.6.1.3.1.2c.1.1-.4.3-1.1.3zm81.6-2.6-1.5-1-.9-.8-.2-.4-.1-.6-.1-.5-.2-.7-.5-1.8-.3-.9-.1-.4-.1-.3v-.2l-.1-.2-.1-.2.6.3h.2l.2.1.3.1.7.1c.3 0 .5 0 .8.2l.3.2.3.2.5.5.4.4.4.4.6.6.5.6.3.3-.2 1.8-.1.6-.1.3-.1.3-.1.4-.1.3v-.2l-.1-.5-.5-1.6-.2-.5-.3-.6-.4-.6-.4-.5-.8-.8-.3-.3.4.5.5.7.5.8.4.9.3 1 .2.5.2.5.1.5.1.4.1.3s-.6 0-1-.2zm-74.4.1.1-.4.1-.5.2-.5.2-.5.3-1 .4-.9.5-.8.5-.7.4-.5-.3.3-.8.8-.4.5-.4.6-.3.6-.2.5a26 26 0 0 0-.5 1.6l-.1.5v.2l-.1-.3-.1-.4-.1-.3-.1-.3-.1-.6-.2-1.8.3-.3.5-.6.6-.6.4-.4.4-.4.5-.5.3-.2.3-.2.8-.2.7-.1.3-.1.2-.1h.2l.6-.3-.1.2-.1.2v.2l-.1.3-.1.4-.3.9-.5 1.8c-.3.1-.4.4-.4.6l-.1.5-.1.6-.2.4-.9.8-1.5 1-.7.4v-.4zM100 42.4zm-12.7-1-.7-.1-.8-.2-.6-.1-.4-.1-.3-.2-.3-.4-.2-.3-.2-.2-.2-.3-.9-1.2-.9-1-.3-.3-.1-.1h.6c.4 0 .9-.1 1.2-.3l.7-.2h.3l.3.1 1.1.4.5.2.3.1.3.1.9.4.1.2.1.3.1.2.1.2.1.5.1 1v.7l-.1-.1-.2-.3-.2-.2-.2-.3-.5-.6-.3-.3-.2-.2-.2-.2-1-.5-.9-.3-.4-.1.5.2.6.3c.5.2.9.6 1.2 1l.5.7.5.7.2.3.2.3.1.2v.1l-.5-.1zm-75.2.1.1-.2.2-.3.2-.3.5-.7.5-.7 1.2-1 .6-.3.5-.2-.4.1-.9.3-1 .5-.2.2-.2.2-.3.3-.5.6-.2.3-.2.2-.2.3-.1.1v-.7l.1-1 .1-.5.1-.2.1-.2.1-.3.1-.2.9-.4.3-.1.3-.1.5-.2 1.1-.4.3-.1h.3l.7.2 1.2.3h.6l-.1.1-.3.3-.9 1-.9 1.2-.2.3c-.1.1-.1-.1-.1 0l-.2.3-.3.4-.3.2-.4.1-.6.1-.8.2-.7.1-.6.2zm81.7-1.3v-1.3l.1-.8.2-.8.1-.5V36l-.1-1.9v-.5l-.1-.5-.1-.8-.1-.6v-.2l.1 1.8a4 4 0 0 1-.3 2.2l-.5 1.3-.2.7-.2.6-.4 1-.1.3v.1l-.1-.1-.2-.2-.5-.6c-.4-.5-.7-1.1-.7-1.7v-1.8l.1-.7.1-.3.1-.3.2-.7.3-.7.3-.8.4-.9.6-1.8.2-.8.1-.7v-1.1l1.3 2.9.9 2.1.6 1.4c.3.9.4 1.8.2 2.7l-.2 1.7-.1.7v.6c0 .4-.1.7-.4 1l-.7.6-.9.2c0 .1 0 .1 0 0zm-88.7-.3-.7-.6a3 3 0 0 1-.4-1v-.6l-.1-.7-.2-1.7c-.1-.9-.1-1.8.2-2.7l.6-1.4.9-2.1 1.3-2.9v1.1l.1.7.2.8.6 1.8.4 1 .3.8.3.7.2.7.2.2.1.3.1.7v1.8c-.1.6-.3 1.3-.7 1.7l-.5.6-.2.2-.1.1-.1-.1-.1-.3-.4-1-.1-.5-.2-.7-.5-1.3c-.3-.6-.3-1.4-.3-2.1l.1-1.8v.2l-.2.6-.1.8-.1.5v.5l-.1 1.9v.8l.1.5c.3.2.3.5.4.7l.1.8v1.3h-.1a2 2 0 0 1-1-.3zM81 31.1l-.7-.4-.3-.2-.5-.4-1.2-.8-1.1-.7-.5-.3.6-.1 1-.5c.1-.1.3-.3.5-.3l.6-.1h.6l.4.1 1.1.1.9.1.3.4.2.4.2.4c.3.4.5.9.6 1.4l-.4-.3-.5-.3-.6-.3c-.6-.3-1.3-.4-1.9-.5l-.9-.1H79l.5.1.7.1.7.2.3.1.3.2 1.3.8.5.3.2.1-.6.1-1.3.3-.8.1c.3.1.3 0 .2 0zm-62.9 0-1.3-.3-.6-.1.2-.1.5-.3 1.4-.8.3-.2.3-.1.7-.2.7-.1.5-.1h-.4l-.9.1c-.7 0-1.3.2-1.9.5l-.6.3-.5.3a3 3 0 0 0-.4.3 19.6 19.6 0 0 1 1-2.2l.3-.4.9-.1 1.1-.1.4-.1h.6l.6.1.5.3c.3.3.6.4 1 .5l.6.1-.5.3-1.1.7-1.2.8-.3.3-.3.2-.7.4h-.9zm68-5.1-.6-.2-.7-.4-.5-.6c-.5-.9-.8-1.9-.9-2.8v-3a15.3 15.3 0 0 0-.6-4l.5.6.6.5.6.6.7.7.6.6.9.8c.5.5.9 1.2 1 1.9l.2.7.2.7.4 1.1.1.5v.5l-.3.9c-.3.5-.6.9-.7.8l-.5-1-.2-.7-.1-.7-.1-.5-.2-.6-.3-.7-.2-.4-.2-.4-.2-.4-.2-.3-.2-.3-.2-.3-.2-.4-.1-.1.2.6.2.4.2.4c.3.6.5 1.2.5 1.9l.2 2.4.1 1v.4s.2-.1 0-.2zm-72.5-.3.1-1 .2-2.4a6 6 0 0 1 .6-1.9l.2-.4.2-.4.2-.6-.1.1-.2.4-.2.3-.2.3-.2.3-.2.4-.2.4-.2.4-.3.7-.2.6-.1.5-.1.7-.2.7-.5 1c0 .1-.4-.3-.7-.8l-.3-.9v-.5l.1-.5.4-1.1.2-.7.2-.7c.2-.7.5-1.4 1-1.9l.9-.8.6-.6.7-.7.6-.6.6-.5.5-.6-.3 1-.3 3v3c-.1 1-.4 2-.9 2.8a1 1 0 0 1-.5.6l-.7.4-.6.2-.3.1s.2 0 .2-.3zm59.2-3.4-2-1.1-1.6-.8.5-.1.8-.5c.2-.3.6-.4 1-.5h.9l1-.1h.8l.3.3.5.6.8 1.1-1.4-.5-.8-.1h-2.1l1.1.1a5.9 5.9 0 0 1 2.6.7l.8.3-.5.2-1.1.4-.8.2-.8-.2zm-47.1 0-1.1-.4-.5-.2.8-.3a7 7 0 0 1 1.3-.5l1.3-.2 1.1-.1h-2.1l-.8.1-1.4.5.8-1.1.5-.6.3-.3h.8l1 .1h.9c.4 0 .7.2 1 .5.2.3.5.4.8.5l.5.1-1.6.8-2 1.1-.7.2-.9-.2zM76 15.9l-.7-.1a2 2 0 0 1-.6-.4 6.4 6.4 0 0 1-1.4-2.2l-.6-2.6-.8-2.5-.4-.8 1.7 1.1 2.2 1.2c.3.1.8.7 1.2 1.3l1.3 1.8c.2.2.3.5.3.7v.8c0 .5-.2.9-.2.8-.6-.5-1-1.1-1.3-1.7-.4-.7-.9-1.3-1.4-1.8l-.9-.9-.4-.4.8 1c.4.4.7.9.9 1.4a16.7 16.7 0 0 0 1.3 3.1l-.7.1-.3.1zm-52.9-.1.5-1.1.8-2c.2-.5.5-1 .9-1.4l.8-1-.4.4-.9.9c-.6.5-1.1 1.2-1.5 1.8-.3.6-.7 1.1-1.3 1.6-.1.1-.2-.4-.3-.9 0-.3-.1-.6 0-.8 0-.3.1-.5.3-.7l1.3-1.8c.5-.6.9-1.2 1.2-1.3.8-.3 1.5-.7 2.2-1.2l1.7-1.1-.4.8c-.4.8-.6 1.7-.8 2.5-.1.9-.3 1.7-.6 2.6-.3.8-.8 1.6-1.4 2.2l-.6.4-.7.1H23.1zm59.8-.8zM61.8 9zM38.2 9zm-9.7-1.7c0-.1 0-.1 0 0z"></path></svg>