<svg xmlns="http://www.w3.org/2000/svg" viewBox="0 0 100 100"><path d="M10.9 100c-1-.3-2.1-.7-3.1-1.2A7.5 7.5 0 0 1 4 92.3V8.5c0-4 2.1-7.1 5.7-8.1.9-.3 1.8-.4 2.6-.4h45.1a7.8 7.8 0 0 1 8.2 7.5v29.9c0 1.3-.5 1.9-1.4 2-.9 0-1.5-.7-1.5-2V8.3A5 5 0 0 0 58.4 3l-1-.1h-5.5l-.6 3.3a6.8 6.8 0 0 1-6.7 5.7H25.1a6.8 6.8 0 0 1-6.7-5.7L17.8 3h-6.3A5 5 0 0 0 7 7.8v83.7c0 2.9 1.5 4.9 4.1 5.5l1.4.1h44.8c3.3 0 5.4-2.1 5.4-5.4V67.8c0-2 .4-2.3 2.3-2.3h3.4V64a4.7 4.7 0 0 1 4.4-4.8h8.6c.2-1.7.6-2.3 1.5-2.3s1.4.6 1.5 2.3c1.9-.1 3.8.1 4.9 1.8.6.9.9 1.9 1 3 0 2.9-1.9 4.2-6.3 4.4l.7.8 9.5 9.5a4.7 4.7 0 0 1 .2 6.5 4.7 4.7 0 0 1-6.5.2l-.2-.2-9.4-9.4-.6-.9-.4.2v2a4.6 4.6 0 0 1-4.5 4.1 4.3 4.3 0 0 1-4.5-4.1l-.1-7.6v-1.2h-2.8v22.8c0 4.7-2 7.3-6.6 8.7l-.1.1-47.8.1zm66.7-29.3 12 12 .8.7c.7.5 1.8.3 2.3-.4.4-.6.4-1.4-.1-2l-.6-.6-12.2-12.2c-.6-.4-.8-1.2-.5-1.8.3-.6 1-1 1.7-.9h4.7c1.2 0 2-.6 2-1.6s-.8-1.7-2-1.7H73.6c-1.5 0-2.1.6-2.1 2.1v12.2c0 1.3.6 2 1.6 2s1.6-.7 1.7-2V72c0-.8 0-1.5.9-1.9l.6-.1c.5-.1 1 .2 1.3.7zM21.3 5.8A3.8 3.8 0 0 0 25.1 9h19.5a4 4 0 0 0 3.8-3.1c.3-.9.4-1.9.6-2.9H20.8l.5 2.8zm7.9 84.3c-4.3-.2-8-3.2-8.8-7a21 21 0 0 1-.2-2.5V65c.1-.6.6-1.1 1.3-1.1.7-.1 1.3.3 1.5 1l.1 1.2c0 4.8.2 9.7-.1 14.5-.3 4.7 4.7 7.8 8.8 6.4 2.9-1 4.7-2.9 4.7-6.3V65.1c.2-.8.9-1.3 1.7-1.1.6.1 1 .6 1.1 1.1v15.5a9.2 9.2 0 0 1-9 9.6h-.6l-.5-.1zm18.8 0c-.7 0-1.3-.5-1.3-1.2l-.1-1.1V66c0-1.5.4-2.2 1.4-2.2 1 0 1.5.7 1.5 2.2v21.8l-.1 1.2c-.1.7-.7 1.1-1.4 1.1zm9.3-25.4-1.1-3.1a5 5 0 0 1 .9-1.6c.9-.7 2-.1 2.2 1.2.1.8.3 1.6.6 2.3.3.7 0 1.6-.7 2l-.7.2c-.5-.1-1-.5-1.2-1zm.4-9c-.7 0-1.3-.6-1.3-1.3v-3.3c0-.7.5-1.3 1.3-1.4h.1c.7-.1 1.3.3 1.4 1v3.9c-.1.7-.6 1.1-1.3 1.1h-.2zM83.1 53c-.8 0-1.4-.6-1.4-1.4v-3.2c0-.8.6-1.5 1.4-1.5.8 0 1.5.6 1.5 1.4v3.3c-.1.8-.7 1.4-1.5 1.4zm-59.6-.5a5 5 0 0 1-5.3-4.8V24.1a5 5 0 0 1 4.2-5.1l.7-.1c.8-.1 1.5.5 1.6 1.3v.1c.1.8-.5 1.5-1.3 1.6h-.1c-1.7.3-2.2.9-2.2 2.6V47c0 1.9.8 2.7 2.7 2.7h22.4c1.8 0 2.6-.8 2.7-2.6V24.5c0-1.8-.8-2.6-2.6-2.6H30.5c-.8 0-1.4-.7-1.4-1.5s.7-1.4 1.5-1.4h15.9a5 5 0 0 1 5.4 4.7v23.6a5 5 0 0 1-4.9 5.2H23.5zm34.3-6.8c-.6-.4-.9-1.2-.5-1.9l.1-.2c.8-1 1.7-1.8 2.7-2.6.9-.6 2.1.2 2.1 1.5l-.7.9-1.7 1.7a2 2 0 0 1-1.3.7c-.2.1-.5 0-.7-.1zm22.3-1.8-2.9-.8c-.7-.1-1.3-.8-1.2-1.6.1-.8.6-1.4 1.4-1.3 1.3.2 2.5.6 3.7 1 .4.1.6.7.7.9 0 1.1-.7 1.7-1.5 1.7l-.2.1zm-12.8-.8c-.7-.1-1.2-.7-1.2-1.4v-.1c0-.7.6-1.3 1.4-1.3h3.2c.7 0 1.3.5 1.4 1.3.2.7-.3 1.4-.9 1.5H71l-1.9.1-1.8-.1zm-39.1-3.7c-1.2 0-1.9-.8-1.7-1.7.1-.7.7-1.2 1.4-1.2h14.8c.8 0 1.4.6 1.4 1.4 0 .8-.7 1.5-1.5 1.5H28.2zm10.5-5.6h-3.9a1.5 1.5 0 1 1-.3-2.9h8a1.5 1.5 0 1 1 .3 2.9h-4.1zm-12.3-1.4c0-.8.7-1.5 1.5-1.5s1.4.6 1.4 1.4c0 .8-.6 1.4-1.3 1.5h-.1c-.8 0-1.4-.6-1.5-1.4zm30-23.3c-.8 0-1.4-.6-1.4-1.4 0-.8.6-1.4 1.4-1.4.8 0 1.4.6 1.4 1.4 0 .8-.6 1.4-1.4 1.4zM32.1 7.7c-.8.1-1.5-.5-1.6-1.4v-.1c0-.8.7-1.5 1.5-1.5h5.7c.8 0 1.4.7 1.4 1.5s-.7 1.4-1.5 1.4h-4.5l-1 .1z"></path></svg>