<svg xmlns="http://www.w3.org/2000/svg" viewBox="0 0 100 100"><path d="M7.5 100a8.5 8.5 0 0 1-4.6-2.8c-2-2.6-2-6.3 0-9l1.2-1.3 20.8-20.8.7-.5-3.9-9.3c-3.4 0-7.1-.3-10.7.1-3.8.4-6.7 4.1-6.9 8.3v2.2h7.8c1.4 0 2.2.7 2.3 1.9 0 1.2-.9 2-2.3 2H3.5l-1.6-.1C1 70.7.3 70 .3 69.1c-.1-3.2-.4-6.4 1.1-9.4 1.5-3.3 4.4-5.8 7.8-6.8l.6-.2.2-.1a9.7 9.7 0 0 1-1.3-6 8 8 0 0 1 4.9-7.6 7.8 7.8 0 0 1 8.6 1.2l.4.3C27.7 28 36.7 21 50.2 20.8c12.2 0 23.1 7.7 27 19.3 1.4-.8 2.9-1.4 4.5-1.8a8 8 0 0 1 9.4 6.4l.1 1.3c.1 2.2 0 4.4-1.2 6.2 1.6.7 3.1 1.5 4.6 2.4 2.7 1.9 4.5 4.8 5.1 8l.2.6v5.9c-.5 1-1.5 1.7-2.7 1.5H77.9c-1.3-.1-2.2-.9-2.2-2s.9-1.9 2.3-1.9h17.9c.7-5-1.8-9-6.4-10.3a7 7 0 0 0-2-.3h-9.3a28.3 28.3 0 0 1-21.4 21.6A28.6 28.6 0 0 1 28 68.5l-.5.5-21 21.1c-1 .9-1.5 2.2-1.2 3.5a3.4 3.4 0 0 0 4.1 2.5c.5-.1.9-.3 1.3-.6l.9-.9 11.1-11.1 1-.8c.8-.5 1.8-.4 2.4.3.6.6.7 1.6.2 2.3A11.1 11.1 0 0 1 9.7 100H7.5zm17.6-50.4A25 25 0 1 0 50 24.7h-.1a25 25 0 0 0-24.8 24.9zM79 45.5a8.6 8.6 0 0 0 0 3.2 4.2 4.2 0 0 0 4.9 3.4l.6-.2c2-.6 2.9-2.3 2.9-4.8v-.9c0-2.2-1.7-4-3.9-4.2h-.4a4 4 0 0 0-4.1 3.5zm-66.3 0a8.6 8.6 0 0 0 0 3.2 4.1 4.1 0 0 0 4.9 3.4l.6-.2c2-.6 3-2.3 2.9-4.8v-1a4.3 4.3 0 0 0-3.9-4.1h-.3a4.1 4.1 0 0 0-4.2 3.5zM28 79c0-1.1.8-1.9 1.9-2 1.1 0 1.9.8 2 1.9 0 1.1-.8 1.9-1.9 1.9-1.1.1-2-.8-2-1.8zm1-29.4c.1-11.6 9.4-21 21-21.1a21 21 0 1 1 0 42.1c-11.6.1-21-9.3-21-21zm20.8 7.2c-4.3 0-8.3 2.5-10.3 6.3a16.7 16.7 0 0 0 21.1 0c-2-3.8-6-6.3-10.3-6.3h-.5zM38.1 37.3a17 17 0 0 0-1.5 22.9c1.8-2.7 4.4-4.9 7.4-6.1-2-3.7-2.3-5.1-1.9-8.1a7.9 7.9 0 0 1 7.9-6.7 8 8 0 0 1 7.9 6.7c.4 2.9.2 5.7-1.7 7.9 1.4.8 2.8 1.7 4.1 2.7a36 36 0 0 1 3.3 3.5A17 17 0 0 0 62 37.4a17.2 17.2 0 0 0-23.9-.1zm7.9 9.2c-.6 3 .5 5.3 2.7 6.1.5.2 1.1.2 1.6.2 2.4-.1 3.8-1.9 3.8-4.8v-1.2c-.2-2-1.8-3.5-3.8-3.7H50a4 4 0 0 0-4 3.4zM50 17c-1.1-.1-1.9-.9-1.9-2 .1-1.1.9-1.9 2-1.9s1.9.9 1.9 2c-.1 1-.9 1.9-2 1.9zm-13.3-3.3-3.2-3.2c-.7-.5-.8-1.5-.4-2.2l1.6-1.4 1.6.9 3.2 3.2c.8.7 1 1.9.3 2.7l-.2.2c-.3.3-.8.5-1.3.6-.6-.1-1.1-.3-1.6-.8zm23.7.1c-.6-.6-.7-1.6-.2-2.3l4-4.1c.2-.2.6-.3 1.2-.5.4.3 1.2.6 1.4 1.2.3.6.3 1.3 0 1.9a51.4 51.4 0 0 1-4 4.1c-.3.2-.6.4-1 .4-.5-.1-1.1-.3-1.4-.7zM48.1 8.2V2.5C48 1.4 48.6.3 49.6 0h1c1 .5 1.5 1.5 1.4 2.6v5.6c0 1.4-.8 2.3-1.9 2.3s-2-.9-2-2.3z"></path></svg>