<svg xmlns="http://www.w3.org/2000/svg" viewBox="0 0 100 100"><path d="M43.5 98.1s.9-3.5.1-10.7c-.6-4 .7-8 3.5-10.9l-.5-.4h-5.5l-1.6-.1-.5.1-.4.2-.5.3-2 1.2a4 4 0 0 1-.6 2.6c-.4.6-1 1-1.7 1.3l-1.5.4-.9.1h-3.1l-1.8-.1-2.8-.2-1.8-.2-.6-.1.9-.4 2.2-1.1 1.3-.7 1.4-.7 1.3-.7 1.2-.6 1.6-.6 1.3-.1 1.3.2.8.2 1 .1 1.1-.5.9-.7.4-.4-3.8-.8c-1.7-.5-3.3-1.1-4.9-1.9l-1.3-.7h-.5l-1 .1-1.2.1-1.1.1a4 4 0 0 1-1.7 2.1l-.9.3-.5.1h-.6l-1.5-.2-1.8-.6-1.7-.7-.8-.3-.7-.3-1.3-.6-1.1-.5-2-1 1-.1 2.4-.2 3-.3 2.8-.2 1.7.1 1.2.4.5.3.6.4 1.4 1h1.2l1.1-.2.5-.2-2.9-2a37 37 0 0 1-5-4.7L19 65l-.4-.2-1-.3-1.2-.3-1.1-.2c-.6.7-1.4 1.1-2.3 1.3-.7.1-1.4 0-2-.3l-1.3-.6-1.4-1.1L4 59.2l-1.6-1.5.9.2 2.3.5 1.4.3 1.5.3 1.4.3 1.3.3c.9.2 1.8.7 2.4 1.4l.8 1 1 1.4 1.1.4 1.1.2h.5a39.5 39.5 0 0 1-5.5-9l-1.1-.9c-.6-.4-1.3-.9-2-1.2-.8.4-1.7.6-2.5.5-.7-.1-1.3-.4-1.8-.9l-1-1-.5-.7-.5-.8c0-1-.5-2-1-2.8L1 45l-1-1.9 2.8 1.8 2.5 1.5 2.3 1.4c.4.3.9.6 1.2 1 .3.3.5.6.6 1l.9 2.8 1.9 1.3.5.2-.7-1.8c-.9-2.4-1.5-4.8-1.9-7.3l-.1-1-.8-1.2a7 7 0 0 0-.8-1l-.7-.8a3.6 3.6 0 0 1-3.9-1.8L3.2 38l-.5-1.7a103.4 103.4 0 0 1-1.3-7.1l-.1-.5L3.5 31a272.6 272.6 0 0 0 3.6 4.2c.6.7 1 1.6 1.1 2.5v1.2c0 .5-.1 1 0 1.6.4.7.8 1.3 1.4 1.8l.4.3c-.2-1.7-.3-3.4-.2-5.1 0-1.8.2-3.6.5-5.3l-.4-1.3-.8-2.2c-.9-.1-1.6-.5-2.3-1.1-.7-.8-1.3-2.2-1.1-4.7l.5-5.4c-.2-.7-.1-1.2-.1-1.5v-.5l.4.8 1 2 2.3 4.9c.4.8.5 1.7.4 2.6L9.8 27l-.5 1.5c.1.7.4 1.4.8 2.1l.2.4.1-.3 1.5-6 1.3-3.8v-.2l-.1-1.1-.1-1.3-.1-1.1c-.8-.3-1.4-.9-1.9-1.7a4 4 0 0 1-.4-1.9l.1-1.3.5-1.6a50.9 50.9 0 0 1 2.7-6.5l.1-.5.1.9.3 2.3.7 5.3v1.5c0 .4-.2.7-.3 1.1l-1.5 2.3c-.1.7 0 1.5.2 2.2l.1.4 1.7-3.6.7-1.3.3-.5.3-.4.5-.8.7-1.1.5-.7.5-.6c-.4-.8-.5-1.8-.3-2.7a4 4 0 0 1 1-1.8l1-.9.7-.4.4-.2.4-.2c1.6-.8 3.3-1.4 5-2l.8-.3.5-.2.5-.2-.6.7-.7.8-.4.5-.4.5-1.6 2.3-.7 1.1-.7 1c-.4.7-1.1 1.3-1.9 1.7l-1.1.3-1.5.4-1 1.5-.8 1.3-.1.1-.1.2-.5.9-.7 1.3-1.7 3.6.4-.2c.6-.3 1.2-.7 1.7-1.2l.9-2.4.7-.8c.4-.3.8-.5 1.3-.6a16 16 0 0 1 6.8-.6l.8.1-.3.2-.9.5c-1.1.7-2.2 1.6-3.1 2.5l-.9.9-.9.6c-.5.3-1.1.5-1.6.5a5 5 0 0 1-2.4-.5l-.9.5-1 .7-.8.7-.2.2-1.3 3.6a39 39 0 0 0-1.4 5.9l-.1.4.4-.3c.6-.4 1.1-1 1.5-1.5l.2-1.5.2-1.1c.3-.8.9-1.4 1.7-1.8 1.5-.8 3-1.4 4.7-1.7l2-.4.8-.1-.3.2-.8.8c-1 1-1.8 2.1-2.6 3.2a5.9 5.9 0 0 1-3.1 2.7c-.8.2-1.7.2-2.5 0a12 12 0 0 0-2.4 2.7 43.5 43.5 0 0 0-.2 10.2l.3-.4 1.1-1.8-.1-1.5v-1.1c.2-.8.6-1.6 1.3-2.1l2-1.4 2.3-1.2 1.9-.8.8-.3-.2.3-.7.9c-.8 1.1-1.4 2.3-1.9 3.6-.2.4-.3.8-.6 1.1l-.6.9a4.3 4.3 0 0 1-3.8 1.6l-.6.8-.3.5-.3.5-.5 1.3.1.9c.4 2.4 1 4.9 1.9 7.2l.7 1.8.2-.5.6-2.1-.8-2.5.1-1.1.7-1.3a16.3 16.3 0 0 1 3.6-3.5l2.4-1.6-.6 1.3a13.8 13.8 0 0 0-1.1 3.9l-.1.7-.1.6a3 3 0 0 1-.4 1c-.2.5-.6 1-1 1.4-.7.6-1.4 1-2.3 1.2l-.7 2.1-.2 1.4c1.4 3.1 3.2 6.1 5.4 8.7l.2-1.6v-1.1l-.8-1.2-.5-1a3 3 0 0 1 .3-2l.5-1.1.7-1.1.8-1.1.8-1 1.4-1.6.6-.6-.1.4-.2 1.1c-.2 1.3-.2 2.7-.1 4.1l.1 1.3-.1 1.1a5 5 0 0 1-.6 1.7c-.5.7-1.2 1.3-2 1.7l-.1 1V63l.1 1 .1.4.1.1a35.6 35.6 0 0 0 7.7 6.6l-.3-1.6-.3-1.1-1.1-1-.4-.4-.3-.4c-.2-.3-.4-.6-.4-1v-1.5l.6-2.4 1-2.5 1-1.9.4-.8V58l.1.8.2.9.1.5.1.5.4 1.2.4 1.2.2 1.1v1l-.2.8c-.3.9-.8 1.6-1.4 2.2l.2 1 .3 1.1.4.9.2.4 1.3.7A27.2 27.2 0 0 0 39 75c-.3-.5-.5-1-.9-1.4l-.7-.9-.8-.3-.6-.2-1-.5-.7-.8-.5-1.4-.2-1.2V67l.1-1.4.2-1.3.4-2.1.2-.9.1.4.3 1 .6 1.5.5.9.3.5.3.5.4.5.3.5.5 1c.2.6.4 1.1.4 1.8.1.9-.1 1.8-.5 2.6l1.2 1.8.3.4.3.3.4.3 1.6.1h4.9c.1-.3.8-.4.8-1.4 0-.8 1.3.3 2.6.3.5 0 .9-.1 1.4-.3.7-.3 1.2-.5 1.2 0 0 1 .6 1.1.8 1.4h6.2l1.6-.1.4-.3.3-.3.3-.4a7 7 0 0 0 1.2-1.8c-.4-.8-.5-1.7-.5-2.6 0-.6.2-1.2.4-1.8l.5-1 .3-.5.4-.5.4-.5.3-.5.5-.9.6-1.5.3-1 .1-.4.2.9.4 2.1.2 1.3.1 1.4v1.3l-.2 1.2c-.1.5-.2 1-.5 1.4l-.7.8-1 .5-.6.3-.8.3-.7.9-.6.9-.3.5c1.2-.2 2.5-.4 3.7-.8a38 38 0 0 0 4.7-1.8l1.3-.7.2-.4.4-.9.3-1.1.2-1a6.4 6.4 0 0 1-1.4-2.2l-.2-.8v-1l.2-1.1.4-1.2.4-1.2.1-.5.1-.5.2-.9.1-.8v-1.5l.4.8a29.6 29.6 0 0 1 2 4.4l.6 2.4v1.5a3 3 0 0 1-.4 1l-.3.4-.4.4-1.1 1-.3 1.1-.3 1.6 2.8-2c1.8-1.4 3.4-2.9 4.9-4.6l.1-.1.1-.4.1-1v-1.1l-.1-1c-.8-.4-1.5-1-2-1.7a5 5 0 0 1-.6-1.7l-.1-1.1.1-1.3c.1-1.4.1-2.7-.1-4.1-1-.8-1.1-1.2-1.1-1.4l-.1-.4.6.6 1.4 1.6.8 1 .8 1.1.7 1.1.5 1.1c.4.8.5 1.7.2 2.5l-.5 1-.8 1.2v1.1l.2 1.6c2.2-2.7 4-5.6 5.4-8.7l-.2-1.4-.7-2.1c-.9-.2-1.6-.6-2.3-1.2-.4-.4-.8-.9-1-1.4l-.4-1-.1-.6-.1-.7-.5-2.3c-.2-.5-.3-1.1-.6-1.6l-.6-1.3a33.3 33.3 0 0 1 4.4 3.3l1.6 1.8.7 1.3.1 1.1c-.2.8-.4 1.7-.8 2.5l.6 2.1.2.5.7-1.8c.8-2.3 1.5-4.7 1.9-7.2l.1-1a7 7 0 0 0-.5-1.3l-.3-.5-.3-.5-.6-.8A7 7 0 0 1 85 40c-.5-.3-1-.7-1.3-1.1l-.6-.9-.5-1.1c-.5-1.3-1.2-2.5-1.9-3.6l-.7-.9-.2-.3.8.3 1.9.8c.8.3 1.6.7 2.3 1.2l2 1.4a3 3 0 0 1 1.3 2.1V39l-.1 1.5c.3.7.7 1.3 1.1 1.8l.3.4c.2-1.7.3-3.3.2-5 0-1.8-.2-3.5-.5-5.2l-.8-1.1a12 12 0 0 0-1.6-1.6c-.8.2-1.7.2-2.5 0a6 6 0 0 1-3.1-2.6c-.7-1.2-1.6-2.3-2.6-3.2l-.8-.8-.3-.2.8.1 2 .4c1.6.4 3.2.9 4.7 1.7.8.4 1.4 1 1.7 1.8l.2 1.1.2 1.5c.4.6.9 1.1 1.5 1.5l.3.3-.1-.3a63 63 0 0 0-2.7-9.6l-.1-.2-1.8-1.4-.9-.5a5 5 0 0 1-2.4.5c-.6-.1-1.1-.2-1.6-.5l-.9-.6-.9-.9c-.9-1-1.9-1.8-3.1-2.5l-.9-.5-.3-.2.8-.1 2-.1c1.6 0 3.3.2 4.8.7.5.1.9.4 1.3.6l.7.8.9 2.4c.5.5 1.1.9 1.7 1.2l.4.2-1.7-3.5-.7-1.3-.3-.5-.3-.4-.5-.8-.7-1.1-.5-.7-.4-.7c-.9.1-1.8 0-2.6-.3-.5-.3-1-.6-1.4-1.1l-.7-1a2 2 0 0 0-.4-.6l-.4-.7c-.7-1.5-1.7-2.8-2.9-4l-.6-.5-.4-.4-.2-.5.9.1 1 .2.6.1.7.2L77 4l1.3.7 1.1.8c.8.5 1.4 1.4 1.7 2.3l.1 1.2v1.6l.6.7.5.7.6.9.1.1.2.3.2.4.6.9c.3.3.5.8.7 1.3l1.8 3.7.1-.4c.2-.7.2-1.4.2-2.2-.6-1.1-1.2-1.6-1.5-2.3a2 2 0 0 1-.3-1.1v-1.5l.7-5.3.3-2.3v-.8l.2.5.6 1.4 2.1 5.1.5 1.6.1 1.3c0 .6-.1 1.3-.4 1.9-.4.7-1.1 1.3-1.9 1.7l-.1 1.1-.1 1.3-.1 1.1v.3l1.3 3.7c.6 2 1.1 3.9 1.5 6l.1.4.2-.4c.4-.6.6-1.3.8-2.1l-.5-1.5-.4-1.1c-.1-.9 0-1.8.4-2.6.5-1.4 1.5-3.3 2.3-4.9l1-2 .4-.8v.5l.1 1.5.5 5.4c.2 2.5-.4 3.9-1.1 4.7-.6.6-1.4 1-2.3 1.1-.3.5-.6 1.4-.8 2.2l-.4 1.4c.3 1.7.4 3.5.5 5.2 0 1.7 0 3.5-.2 5.2l.4-.3c.6-.5 1-1.1 1.4-1.8V38c.1-.9.5-1.8 1.1-2.5l1.7-2 1.9-2.2 2.1-2.5-.1.5-.3 1.5-1 5.6-.5 1.7-.6 1.2c-.3.6-.8 1-1.4 1.4-.8.4-1.7.5-2.5.4l-.7.8-.8 1-.8 1.2-.1.9c-.4 2.5-1 5-1.9 7.4l-.7 1.9.5-.2c.7-.3 1.3-.7 1.9-1.3.5-1.2.6-2.1.9-2.8l.6-1 1.2-1c.6-.5 1.4-.9 2.3-1.4l2.5-1.5L100 43l-1 1.9-1.2 2.2-1.6 2.9-.5.8-.5.7-1 1a5 5 0 0 1-1.8.9c-.9.1-1.8-.1-2.5-.5l-2 1.2-1.2.9a41.8 41.8 0 0 1-5.5 9h.5l1.1-.2 1.1-.4 1-1.4.8-1c.7-.7 1.5-1.1 2.4-1.4l1.2-.3 1.4-.3 1.5-.3 1.4-.3 2.3-.5.9-.2-1.6 1.5-4.3 4.1a7.6 7.6 0 0 1-2.7 1.7c-.6.3-1.3.3-2 .3-.9-.2-1.7-.6-2.3-1.3l-1.1.2-1.2.3-1 .3-.4.2-.1.1a45.6 45.6 0 0 1-7.9 6.8l.5.2 1.1.2H75l1.4-1 .6-.4.5-.3 1.2-.4 1.7-.1 2.8.2 3 .3 2.4.2 1 .1-2 1-1.1.5-.9.6-.7.3-.8.3-1.7.7-1.8.6-1.5.2h-.6L78 75l-.9-.3a4 4 0 0 1-1.7-2.1l-1.1-.1-1.2-.1-1-.1h-.5l-1.3.7a29.2 29.2 0 0 1-8.7 2.7l.4.4.9.7 1.1.5 1-.1.8-.2 1.3-.2 1.3.1c.6.1 1.1.3 1.6.6l1.2.6 1.3.7 1.4.7 1.3.7 2.2 1.1.9.4-.3.1-1.8.2-2.8.2-1.8.1h-3.1l-.9-.1-1.5-.4c-.7-.3-1.2-.7-1.7-1.3a4 4 0 0 1-.6-2.6c-.5-.3-1.3-.9-2-1.2l-.5-.3-.4-.2a.8.8 0 0 0-.5-.2l-1.6.1-.8-.1h-6.1l-.4.4c2.8 2.9 4.1 6.9 3.5 10.9-.8 7.1.1 10.7.1 10.7l-11.6.1z"></path></svg>