<svg xmlns="http://www.w3.org/2000/svg" viewBox="0 0 113.5 90" style="enable-background:new 0 0 113.5 90" xml:space="preserve"><path d="m56.8 40.5-3.7-6.4-6 10.4-22-38.2h12l16 27.8 3.7 6.4 9.7 16.7L99.5 0H14.1l33 57.2 9.7-16.7zM88.4 6.4l-22 38.2-6-10.4 16-27.8h12zm-19.3 0L56.8 27.8 44.4 6.4h24.7zM2.7 83.8c-.7 1.1-.7 2.5 0 3.6.3.4.9.7 1.4.6.4 0 .8-.1 1.2-.3.3-.2.6-.5.7-.9h2.2c-.2.9-.7 1.7-1.4 2.3-.7.6-1.7.9-2.6.9-.8 0-1.5-.2-2.2-.5-.6-.4-1.1-.9-1.5-1.5-.7-1.4-.7-3.1 0-4.5.3-.6.8-1.2 1.5-1.5.7-.4 1.4-.6 2.2-.5 1 0 1.9.3 2.7.9.7.6 1.2 1.4 1.4 2.3H6.1c-.1-.4-.4-.7-.7-.9-.4-.2-.8-.3-1.2-.3-.6-.4-1.2-.1-1.5.3zm14.2-2c-1.4-.8-3-.8-4.4 0-.7.4-1.2.9-1.6 1.6-.8 1.4-.8 3.1 0 4.5.4.7.9 1.2 1.6 1.6 1.4.8 3 .8 4.4 0 .7-.4 1.2-.9 1.6-1.6.8-1.4.8-3.1 0-4.5-.4-.7-1-1.3-1.6-1.6zm-.6 5.6c-.4.4-1 .7-1.6.7-.6 0-1.2-.2-1.6-.7-.8-1.1-.8-2.5 0-3.6.4-.4 1-.7 1.6-.7.6 0 1.2.2 1.6.7.8 1 .8 2.5 0 3.6zm10.8 2.5h-1.8l-1.9-5.3v5.3h-2.1v-8.5h2.5l2.3 5.9 2.3-5.9H31v8.5h-2.1v-5.3l-1.8 5.3zm9.9-8.6h-3.4v8.6h2.1v-3H37c.6 0 1.2-.1 1.7-.4.4-.2.8-.6 1.1-1 .2-.4.4-.9.4-1.4 0-.8-.3-1.5-.8-2-.7-.6-1.6-.8-2.4-.8zm-.2 3.9h-1.1V83h1.1c.8 0 1.2.4 1.2 1.1 0 .8-.4 1.1-1.2 1.1zm8.1-3.8-3.1 8.5H44l.5-1.6h3.2l.5 1.6h2.2l-3.1-8.5h-2.4zm.1 5.3 1.1-3.1 1.1 3.1H45zm12.9-5.4H60v8.6h-2.1l-3.5-5.3v5.3h-2.1v-8.6h2.1l3.5 5.3v-5.3zm7.1 8.6V87l-3-5.7h2.4l1.6 3.5 1.6-3.5h2.3L67 87v2.8h-2zm18.2 0h-2.1l-3.5-5.3v5.3h-2.1v-8.6h2.1l3.5 5.3v-5.3h2.1v8.6zm5.2-8.5-3.1 8.5h2.2l.5-1.6h3.2l.5 1.6h2.2l-3.1-8.5h-2.4zm.1 5.3 1.1-3.1 1.1 3.1h-2.2zm14.5-5.3h2.5v8.5h-2.1v-5.3l-1.8 5.3h-1.8L98 84.6v5.3h-2.1v-8.5h2.5l2.3 5.9 2.3-5.9zm7.3 1.6v1.8h2.9v1.6h-2.9v1.9h3.3V90h-5.3v-8.6h5.3V83h-3.3z"/></svg>