<svg xmlns="http://www.w3.org/2000/svg" viewBox="0 0 110.9 91.5" style="enable-background:new 0 0 110.9 91.5" xml:space="preserve"><path d="M44.6 47.6c-3.6-.3-7.1.9-9.6 3.5l-5-5c.5-.5 1-.9 1.5-1.2 4.3-2.9 10.2-1.7 13.1 2.7zM92.9 26 68.3 1.4C67.4.5 66.2 0 65 0c-1.2 0-2.4.5-3.4 1.4l-5 5 21.1 21.1c2.9 2.9 2.9 7.6 0 10.4L55.5 60.2c-.1 3-1.4 5.8-3.5 8l2.8 2.8 38.1-38.2c1.8-1.9 1.8-4.9 0-6.8zM28.1 44.3c4.7-4.7 12.4-4.7 17.1 0 4.7 4.7 4.7 12.4 0 17.1l2.8 2.8 7.2-7.3 20.6-20.7c1.9-1.9 1.9-4.9 0-6.8L54.7 8.3l-3.4-3.4c-1.9-1.9-4.9-1.9-6.7 0l-27.9 28 6.8 6.8 4.6 4.6zm-22.9 45c-.3.2-.8.3-1.2.3-.6 0-1.1-.2-1.4-.6-.7-1-.7-2.4 0-3.5.4-.5.9-.7 1.4-.7.4 0 .8.1 1.2.3.3.2.6.5.7.9H8c-.2-.9-.6-1.7-1.4-2.3-.6-.5-1.6-.8-2.5-.8-.7 0-1.5.2-2.1.5-.6.4-1.1.9-1.4 1.5-.7 1.4-.7 3 0 4.4.3.6.8 1.2 1.4 1.5.7.4 1.4.6 2.1.5 1 0 1.9-.3 2.6-.8.7-.6 1.2-1.4 1.4-2.3H5.9c-.1.5-.4.8-.7 1.1zM18 85c.7 1.4.7 3 0 4.4-.4.6-.9 1.2-1.5 1.5-1.3.7-2.9.7-4.3 0-.6-.4-1.2-.9-1.5-1.5-.7-1.4-.7-3 0-4.4.4-.6.9-1.2 1.5-1.5 1.3-.7 2.9-.7 4.3 0 .6.3 1.2.8 1.5 1.5zm-2.1.4c-.4-.4-1-.7-1.6-.7-.6 0-1.2.2-1.6.6-.8 1-.8 2.5 0 3.5.4.4 1 .7 1.6.7.6 0 1.2-.2 1.6-.7.8-.9.8-2.3 0-3.4zm9.7 3.5-2.3-5.8h-2.5v8.3h2v-5.2l1.8 5.2h1.8l1.8-5.2v5.2h2v-8.3h-2.5l-2.1 5.8zm12.8-5.1c.5.5.8 1.3.8 2 0 .5-.1 1-.3 1.4-.2.4-.6.7-1 1-.5.2-1.1.4-1.7.4h-1.3v2.9h-2V83h3.3c.8 0 1.6.2 2.2.8zm-1.3 2c0-.7-.4-1.1-1.2-1.1h-1v2.2h1c.8-.1 1.2-.4 1.2-1.1zm9.1-2.7 3.1 8.3h-2.2l-.5-1.5h-3.1l-.5 1.5h-2.1l3.1-8.3h2.2zm-.2 5.2-1-3.1-1.1 3.1H46zm10.6-.1L53.2 83h-2v8.4h2v-5.1l3.4 5.1h2V83h-2v5.2zm7.9-1.8L62.9 83h-2.3l2.9 5.6v2.8h2v-2.8l2.9-5.6h-2.3l-1.6 3.4zM79.3 83v5.2L75.9 83h-2v8.4h2v-5.1l3.4 5.1h2V83h-2zm9.4.1 3.1 8.3h-2.2l-.5-1.5H86l-.5 1.5h-2.1l3.1-8.3h2.2zm-.1 5.2-1-3.1-1.1 3.1h2.1zm9.9.6-2.3-5.8h-2.5v8.3h2v-5.2l1.8 5.2h1.8l1.8-5.2v5.2h2v-8.3h-2.5l-2.1 5.8zm12.4-4.3V83h-5.2v8.4h5.2v-1.6h-3.2v-1.9h2.8v-1.5h-2.8v-1.8h3.2z"/></svg>