<svg xmlns="http://www.w3.org/2000/svg" viewBox="0 0 114.6 89.8" style="enable-background:new 0 0 114.6 89.8" xml:space="preserve"><path d="M19.8 25.4V15.3C19.8 6.9 26.6 0 35.1 0h49.4c5.6 0 10.2 4.6 10.2 10.2H35.1c-2.9 0-5.2 2.3-5.2 5.2v10.1c0 2.9 2.3 5.2 5.2 5.2h47v10.2h-47c-8.5-.1-15.3-7-15.3-15.5zM79.5 15h-47v10.2h47c2.9 0 5.2 2.3 5.2 5.2v10.1c0 2.9-2.3 5.2-5.2 5.2H19.7c0 5.6 4.6 10.2 10.2 10.2h49.7c8.5 0 15.3-6.9 15.3-15.3V30.4C94.9 21.9 88 15 79.5 15zM4.2 83c.4 0 .8.1 1.2.3.3.2.6.6.8.9h2.2c-.2-.9-.7-1.8-1.4-2.3-.9-.6-1.8-.9-2.8-.9-.8 0-1.5.2-2.2.6-.6.4-1.1.9-1.5 1.6-.7 1.4-.7 3.1 0 4.6.3.7.8 1.2 1.5 1.6.7.4 1.4.6 2.2.6 1 0 1.9-.3 2.7-.9.7-.6 1.2-1.4 1.4-2.3H6.1c-.1.2-.4.5-.7.7-.4.2-.8.4-1.2.3-.6 0-1.1-.2-1.5-.7-.7-1.1-.7-2.5 0-3.6.4-.3.9-.6 1.5-.5zm14.4.1c.8 1.4.8 3.1 0 4.6-.4.7-.9 1.2-1.6 1.6-1.4.8-3 .8-4.4 0-.7-.4-1.2-.9-1.6-1.6-.8-1.4-.8-3.1 0-4.6.4-.7.9-1.2 1.6-1.6 1.4-.8 3-.8 4.4 0 .7.4 1.2 1 1.6 1.6zm-2.1.5c-.4-.5-1-.7-1.6-.7-.6 0-1.2.2-1.6.7-.8 1.1-.8 2.5 0 3.6.4.5 1 .7 1.6.7.6 0 1.2-.2 1.6-.7.8-1.1.8-2.5 0-3.6zm12.7.8v5.4h2.1v-8.6h-2.5l-2.3 6-2.3-6h-2.6v8.6h2.1v-5.4l1.9 5.4h1.8l1.8-5.4zm10.5-2.5c.5.5.8 1.3.8 2.1 0 .5-.1 1-.4 1.4-.3.4-.6.8-1.1 1-.5.3-1.1.4-1.7.4H36v3h-2v-8.6h3.4c.8-.2 1.6.1 2.3.7zm-1.3 2c0-.8-.4-1.1-1.3-1.1H36V85h1.1c.8 0 1.3-.3 1.3-1.1zm9.3-2.7 3.2 8.6h-2.2l-.5-1.6H45l-.5 1.6h-2.2l3.2-8.6h2.2zm-.2 5.4-1.1-3.2-1.1 3.2h2.2zm11-.1L55 81.1h-2.1v8.6H55v-5.3l3.5 5.3h2.1v-8.6h-2.1v5.4zm9.2 3.2v-2.9l3-5.8h-2.4l-1.7 3.5-1.6-3.4h-2.4l3 5.8v2.9h2.1zM84 81.1h-2.1v5.3l-3.5-5.3h-2.1v8.6h2.1v-5.3l3.5 5.3H84v-8.6zm7.6.1 3.2 8.6h-2.2l-.6-1.6h-3.2l-.5 1.6h-2.2l3.2-8.6h2.3zm-.1 5.4-1.1-3.2-1.1 3.2h2.2zm10.2.5-2.3-6h-2.6v8.6h2.1v-5.4l1.9 5.4h1.8l1.9-5.4v5.4h2.1v-8.6H104l-2.3 6zm12.9-4.3v-1.7h-5.4v8.6h5.4V88h-3.3v-1.9h2.9v-1.6h-2.9v-1.8h3.3z"/></svg>