<?xml version="1.0" standalone="no"?>
<!DOCTYPE svg PUBLIC "-//W3C//DTD SVG 20010904//EN"
 "http://www.w3.org/TR/2001/REC-SVG-20010904/DTD/svg10.dtd">
<svg version="1.0" xmlns="http://www.w3.org/2000/svg"
 width="512.000000pt" height="512.000000pt" viewBox="0 0 512.000000 512.000000"
 preserveAspectRatio="xMidYMid meet">

<g transform="translate(0.000000,512.000000) scale(0.100000,-0.100000)"
fill="#000000" stroke="none">
<path d="M815 5104 c-91 -33 -146 -119 -153 -236 l-5 -78 -146 0 c-211 0 -292
-25 -390 -122 -56 -56 -87 -109 -106 -184 -14 -54 -15 -237 -13 -1620 l3
-1559 32 -67 c64 -135 177 -219 322 -239 39 -6 162 -9 272 -7 l201 3 24 28
c29 34 30 56 4 90 l-20 25 -248 4 c-202 4 -254 7 -283 21 -53 24 -96 63 -127
116 -26 44 -27 52 -30 214 l-4 167 2411 0 2411 0 0 -148 c0 -169 -11 -216 -65
-280 -19 -22 -56 -50 -82 -63 l-48 -24 -1858 -5 c-1825 -5 -1859 -5 -1873 -24
-20 -28 -17 -69 5 -97 l19 -24 391 -3 c362 -2 391 -4 391 -20 0 -9 -14 -123
-30 -252 -16 -129 -30 -236 -30 -237 0 -2 -94 -3 -210 -3 -197 0 -211 -1 -230
-20 -19 -19 -20 -33 -20 -220 0 -192 1 -200 22 -220 22 -20 28 -20 1208 -20
1180 0 1186 0 1208 20 21 20 22 28 22 220 0 187 -1 201 -20 220 -19 19 -33 20
-230 20 -115 0 -210 1 -210 3 0 1 -14 108 -30 237 -16 129 -30 243 -30 253 0
16 41 17 718 17 394 0 746 5 781 10 137 19 252 107 314 238 l32 67 3 1559 c3
1699 5 1624 -53 1721 -31 52 -97 119 -151 150 -71 42 -144 55 -305 55 l-146 0
-5 78 c-5 87 -27 138 -80 189 -70 67 57 63 -1822 62 -1464 0 -1707 -2 -1741
-15z m3462 -158 l28 -24 3 -1556 2 -1556 -1750 0 -1750 0 2 1556 3 1556 28 24
28 24 1689 0 1689 0 28 -24z m-3617 -396 l0 -90 -98 0 c-124 0 -175 -22 -209
-90 -20 -38 -23 -60 -23 -156 0 -62 4 -124 9 -137 18 -47 101 -57 128 -15 4 7
10 65 13 128 l5 115 88 3 87 3 0 -1251 0 -1250 -90 0 -90 0 0 1012 0 1012 -22
23 c-30 33 -80 31 -107 -3 -21 -27 -21 -30 -21 -1035 l0 -1009 -90 0 -90 0 2
1323 c3 1267 4 1323 22 1357 36 68 97 120 166 141 14 4 91 8 173 8 l147 1 0
-90z m4160 66 c49 -26 98 -74 123 -121 l22 -40 3 -1322 2 -1323 -90 0 -90 0 0
1258 0 1258 -22 44 c-35 68 -86 90 -210 90 l-98 0 0 91 0 91 163 -4 c134 -3
168 -6 197 -22z m-182 -1558 l2 -1248 -90 0 -90 0 0 1250 0 1251 88 -3 87 -3
3 -1247z m-2318 -2207 c0 -198 -16 -186 240 -186 256 0 240 -12 240 186 l0
139 158 0 158 0 28 -232 c15 -128 30 -243 33 -255 l5 -23 -622 0 -622 0 5 23
c3 12 18 127 33 255 l28 232 158 0 158 0 0 -139z m330 49 l0 -90 -90 0 -90 0
0 90 0 90 90 0 90 0 0 -90z m990 -660 l0 -90 -1080 0 -1080 0 0 90 0 90 1080
0 1080 0 0 -90z"/>
<path d="M1185 4765 c-21 -20 -25 -34 -25 -85 l0 -60 -59 0 c-73 0 -104 -21
-104 -70 0 -51 39 -80 109 -80 l54 0 0 -54 c0 -69 26 -106 75 -106 49 0 75 37
75 106 l0 54 54 0 c72 0 106 26 106 80 0 52 -26 70 -102 70 l-58 0 0 60 c0 51
-4 65 -25 85 -13 14 -36 25 -50 25 -14 0 -37 -11 -50 -25z"/>
<path d="M3223 4600 c-43 -26 -66 -64 -73 -118 l-5 -45 -460 -154 -460 -153
-256 0 c-285 0 -333 -7 -395 -62 -19 -17 -44 -48 -54 -68 l-19 -38 -90 -4
c-77 -4 -96 -8 -137 -34 -30 -18 -60 -48 -79 -78 -29 -48 -30 -54 -33 -187 -5
-164 8 -216 66 -271 56 -54 96 -70 188 -76 l83 -5 30 -48 c20 -33 46 -57 80
-76 l51 -28 -3 -260 -2 -260 -36 -5 c-96 -16 -129 -78 -129 -243 0 -97 3 -117
23 -151 12 -22 38 -49 57 -60 33 -20 50 -21 332 -21 285 0 298 1 325 21 15 11
38 36 51 54 20 30 22 45 22 164 0 113 -3 135 -20 164 -24 39 -75 72 -112 72
l-28 0 0 260 0 260 32 0 c18 0 245 -71 505 -157 l473 -158 0 -34 c0 -51 37
-108 87 -132 38 -18 57 -20 167 -17 135 3 154 10 200 72 19 25 21 44 24 232 3
184 5 204 20 204 37 0 144 62 193 110 140 140 157 358 39 522 -45 64 -134 128
-204 148 l-46 13 0 272 c0 264 -1 273 -23 315 -36 68 -68 80 -222 80 -111 0
-135 -3 -162 -20z m257 -965 l0 -835 -90 0 -90 0 0 835 0 835 90 0 90 0 0
-835z m-334 -633 c-3 -2 -193 59 -423 135 l-418 140 -3 359 -2 359 422 141
423 141 3 -635 c1 -349 0 -637 -2 -640z m-996 638 l0 -340 -227 0 c-164 1
-232 4 -244 13 -36 28 -39 51 -39 330 0 260 1 276 20 300 11 14 30 28 43 30
12 2 118 5 235 6 l212 1 0 -340z m-660 -6 l0 -176 -66 4 c-58 4 -70 8 -90 32
-22 25 -24 36 -24 136 0 157 14 178 123 179 l57 1 0 -176z m2244 100 c114
-115 94 -304 -42 -394 -25 -16 -49 -30 -54 -30 -4 0 -8 110 -8 245 l0 245 38
-19 c20 -10 50 -32 66 -47z m-1746 -841 l-3 -258 -87 -3 -88 -3 0 261 0 260
90 0 90 0 -2 -257z m162 -503 l0 -90 -252 2 -253 3 -3 88 -3 87 256 0 255 0 0
-90z"/>
<path d="M1805 3685 c-30 -29 -32 -64 -6 -96 15 -19 30 -24 87 -27 59 -3 73
-1 97 18 34 27 37 80 7 110 -16 16 -33 20 -90 20 -62 0 -74 -3 -95 -25z"/>
<path d="M3835 2445 c-21 -20 -25 -34 -25 -85 l0 -60 -58 0 c-75 0 -102 -18
-102 -69 0 -53 26 -74 100 -79 l60 -4 0 -53 c0 -68 26 -105 75 -105 49 0 75
37 75 105 l0 53 60 4 c71 5 103 29 103 77 0 52 -27 71 -100 71 l-63 0 0 60 c0
51 -4 65 -25 85 -13 14 -36 25 -50 25 -14 0 -37 -11 -50 -25z"/>
<path d="M2364 1466 c-48 -21 -60 -80 -24 -116 19 -19 33 -20 220 -20 192 0
200 1 220 22 37 40 22 98 -31 117 -47 16 -346 14 -385 -3z"/>
</g>
</svg>
