<?xml version="1.0" standalone="no"?>
<!DOCTYPE svg PUBLIC "-//W3C//DTD SVG 20010904//EN"
 "http://www.w3.org/TR/2001/REC-SVG-20010904/DTD/svg10.dtd">
<svg version="1.0" xmlns="http://www.w3.org/2000/svg"
 width="200.000000pt" height="200.000000pt" viewBox="0 0 200.000000 200.000000"
 preserveAspectRatio="xMidYMid meet">

<g transform="translate(0.000000,200.000000) scale(0.100000,-0.100000)"
fill="#000000" stroke="none">
<path d="M635 1562 c-289 -178 -320 -200 -329 -230 -13 -48 13 -78 119 -133
l88 -47 -39 -24 c-21 -14 -65 -40 -96 -58 -75 -45 -96 -90 -62 -138 8 -12 56
-43 105 -67 49 -25 89 -47 89 -49 0 -2 -43 -29 -95 -60 -52 -31 -99 -65 -105
-76 -17 -31 -11 -70 13 -92 40 -36 659 -348 690 -348 43 0 665 384 678 419 19
49 -9 83 -110 137 -50 26 -88 51 -86 55 3 4 41 28 85 54 160 94 160 145 0 229
-67 35 -88 51 -79 57 8 5 51 32 97 60 86 53 107 80 96 124 -3 13 -13 30 -22
39 -37 33 -660 346 -688 345 -19 0 -135 -65 -349 -197z m650 -55 c154 -80 279
-149 277 -153 -1 -5 -126 -85 -277 -177 l-274 -168 -283 147 c-156 80 -287
149 -291 154 -9 8 543 351 558 346 6 -2 136 -69 290 -149z m285 -487 c-1 -10
-544 -335 -560 -335 -9 0 -143 65 -298 145 -216 111 -279 147 -269 156 6 7 49
34 94 62 l82 50 183 -94 c103 -53 196 -94 212 -94 19 0 84 34 198 104 l170
105 94 -47 c52 -26 94 -49 94 -52z m-84 -286 c47 -26 82 -50 77 -54 -4 -5
-130 -83 -280 -175 l-272 -166 -283 147 c-156 80 -287 149 -291 154 -8 7 164
120 182 120 5 0 93 -43 196 -96 141 -73 192 -95 210 -90 14 4 98 51 187 106
90 55 169 100 176 100 7 0 51 -21 98 -46z"/>
</g>
</svg>
