<?xml version="1.0" standalone="no"?>
<!DOCTYPE svg PUBLIC "-//W3C//DTD SVG 20010904//EN"
 "http://www.w3.org/TR/2001/REC-SVG-20010904/DTD/svg10.dtd">
<svg version="1.0" xmlns="http://www.w3.org/2000/svg"
 width="225.000000pt" height="225.000000pt" viewBox="0 0 225.000000 225.000000"
 preserveAspectRatio="xMidYMid meet">

<g transform="translate(0.000000,225.000000) scale(0.100000,-0.100000)"
fill="#000000" stroke="none">
<path d="M787 2225 c-151 -82 -323 -193 -334 -215 -16 -32 -18 -661 -3 -691 7
-11 21 -19 37 -19 24 0 306 153 346 188 15 13 17 35 17 170 0 130 2 153 14
149 20 -8 493 -285 529 -309 l27 -19 0 -348 c0 -263 -3 -351 -12 -362 -12 -14
-541 -329 -553 -329 -3 0 -5 67 -5 149 l0 150 138 82 c75 45 145 90 155 101
15 18 17 43 17 210 0 111 -4 197 -10 209 -6 10 -21 19 -34 19 -12 0 -162 -84
-332 -188 -262 -158 -312 -192 -326 -222 -16 -31 -18 -70 -18 -358 0 -257 3
-328 14 -350 10 -19 70 -60 192 -132 149 -87 186 -105 219 -104 34 0 106 39
475 256 368 216 438 261 453 289 16 31 17 75 15 586 l-3 553 -25 24 c-39 38
-877 527 -913 532 -22 4 -46 -3 -80 -21z m518 -299 l430 -254 3 -545 2 -546
-27 -19 c-67 -46 -835 -492 -849 -492 -14 0 -241 127 -249 139 -2 4 184 117
413 252 243 144 425 258 437 273 19 26 20 42 20 398 l0 370 -35 31 c-20 18
-216 138 -437 267 -221 129 -402 237 -403 240 0 10 226 139 245 139 11 0 214
-113 450 -253z m-638 2 l123 -73 0 -160 0 -160 -131 -75 c-72 -41 -135 -76
-140 -78 -5 -2 -9 123 -9 301 0 300 1 311 29 316 3 1 60 -32 128 -71z m416
-969 c-5 -4 -135 -84 -290 -178 l-283 -170 0 158 0 159 288 175 287 175 3
-155 c1 -86 -1 -160 -5 -164z m-305 -564 c-7 -7 -64 -42 -127 -79 -89 -52
-117 -64 -127 -55 -11 9 -14 44 -14 143 l0 131 138 83 137 82 3 -147 c2 -109
-1 -150 -10 -158z"/>
</g>
</svg>
