<?xml version="1.0" standalone="no"?>
<!DOCTYPE svg PUBLIC "-//W3C//DTD SVG 20010904//EN"
 "http://www.w3.org/TR/2001/REC-SVG-20010904/DTD/svg10.dtd">
<svg version="1.0" xmlns="http://www.w3.org/2000/svg"
 width="277.000000pt" height="182.000000pt" viewBox="0 0 277.000000 182.000000"
 preserveAspectRatio="xMidYMid meet">

<g transform="translate(0.000000,182.000000) scale(0.100000,-0.100000)"
fill="#000000" stroke="none">
<path d="M1235 1666 c-65 -16 -112 -41 -153 -80 -55 -51 -65 -80 -70 -198 l-5
-108 172 0 c164 0 171 -1 171 -20 0 -20 -7 -20 -280 -20 -256 0 -284 -2 -318
-19 -50 -26 -76 -55 -109 -126 -26 -55 -28 -69 -28 -180 0 -150 17 -207 84
-275 56 -58 93 -70 217 -70 l92 0 4 -123 c3 -111 6 -127 30 -168 54 -92 168
-140 333 -142 178 -1 292 43 349 137 28 45 30 54 31 155 l0 106 -167 3 c-140
2 -168 5 -168 17 0 13 38 15 263 15 308 0 333 5 396 77 60 67 76 125 76 268 0
110 -3 125 -28 180 -55 119 -101 144 -258 145 l-107 0 -4 128 c-5 140 -13 165
-70 218 -42 40 -99 69 -166 83 -68 14 -223 13 -287 -3z m309 -70 c26 -8 62
-26 81 -41 63 -47 65 -59 65 -314 l0 -231 -29 -32 -29 -33 -254 -5 c-271 -5
-276 -6 -322 -60 -33 -39 -46 -89 -46 -172 l0 -68 -104 0 c-90 0 -107 3 -136
23 -111 74 -127 355 -26 465 45 51 54 52 376 52 l301 0 -3 83 -3 82 -167 3
-168 2 0 61 c0 34 7 73 15 89 17 33 64 71 112 89 80 32 243 35 337 7z m447
-439 c72 -49 102 -124 101 -257 -1 -90 -17 -151 -53 -201 -41 -58 -49 -59
-384 -59 l-305 0 0 -85 0 -85 170 0 170 0 0 -64 c0 -72 -22 -115 -79 -153 -54
-36 -108 -48 -226 -48 -156 0 -231 28 -282 104 -22 33 -23 42 -23 257 0 122 4
234 10 248 21 56 42 61 315 66 238 5 251 6 281 27 47 34 67 85 72 186 l4 87
98 0 c84 0 101 -3 131 -23z"/>
<path d="M1166 1488 c-22 -31 -20 -64 6 -88 43 -40 108 -11 108 48 0 58 -82
86 -114 40z"/>
<path d="M1517 419 c-67 -52 4 -152 72 -102 32 25 40 72 14 95 -32 28 -58 30
-86 7z"/>
</g>
</svg>
