<?xml version="1.0" standalone="no"?>
<!DOCTYPE svg PUBLIC "-//W3C//DTD SVG 20010904//EN"
 "http://www.w3.org/TR/2001/REC-SVG-20010904/DTD/svg10.dtd">
<svg version="1.0" xmlns="http://www.w3.org/2000/svg"
 width="225.000000pt" height="225.000000pt" viewBox="0 0 225.000000 225.000000"
 preserveAspectRatio="xMidYMid meet">

<g transform="translate(0.000000,225.000000) scale(0.100000,-0.100000)"
fill="#000000" stroke="none">
<path d="M983 2045 c-355 -64 -585 -309 -680 -727 -23 -101 -22 -349 2 -483
20 -115 63 -246 108 -325 45 -81 168 -198 249 -237 131 -64 209 -78 433 -78
162 0 214 3 272 18 109 28 109 29 88 118 -10 41 -20 77 -24 81 -3 3 -40 -3
-81 -14 -103 -27 -364 -30 -460 -5 -208 55 -332 191 -392 432 -19 76 -22 117
-22 265 0 162 2 182 27 263 26 86 75 192 116 252 53 78 146 157 236 200 114
55 181 69 325 68 314 -2 515 -142 585 -408 21 -79 22 -311 1 -419 -31 -156
-121 -266 -221 -266 -50 0 -89 32 -99 80 -3 17 5 155 19 308 13 152 26 295 27
317 3 38 0 42 -46 73 -120 80 -291 95 -418 35 -125 -59 -228 -197 -280 -379
-33 -113 -33 -323 0 -404 45 -113 127 -179 236 -187 93 -8 162 15 230 78 l56
51 45 -50 c61 -68 114 -86 239 -80 119 5 194 38 266 114 114 121 168 352 140
602 -44 400 -255 646 -606 707 -104 18 -272 18 -371 0z m299 -603 c3 -4 -3
-115 -16 -247 -22 -246 -28 -271 -78 -335 -31 -39 -70 -60 -115 -60 -94 0
-141 92 -130 255 7 95 35 213 66 274 26 49 80 100 127 117 38 14 131 11 146
-4z"/>
</g>
</svg>
