<?xml version="1.0" standalone="no"?>
<!DOCTYPE svg PUBLIC "-//W3C//DTD SVG 20010904//EN"
 "http://www.w3.org/TR/2001/REC-SVG-20010904/DTD/svg10.dtd">
<svg version="1.0" xmlns="http://www.w3.org/2000/svg"
 width="300.000000pt" height="299.000000pt" viewBox="0 0 300.000000 299.000000"
 preserveAspectRatio="xMidYMid meet">

<g transform="translate(0.000000,299.000000) scale(0.100000,-0.100000)"
fill="#000000" stroke="none">
<path d="M1680 2979 c-55 -23 -93 -66 -182 -207 -191 -303 -290 -415 -409
-463 -41 -17 -92 -41 -114 -54 -38 -22 -143 -126 -210 -206 -26 -32 -63 -50
-280 -139 -137 -56 -299 -123 -360 -149 -168 -70 -176 -55 165 -301 308 -221
283 -210 384 -174 48 17 50 17 85 -2 19 -10 53 -41 74 -69 43 -56 166 -302
222 -445 21 -52 42 -101 47 -107 14 -18 50 -16 112 6 122 43 240 144 464 400
196 222 279 279 397 269 72 -6 142 -50 263 -164 179 -167 237 -201 261 -155 8
15 -1 45 -45 142 -91 203 -190 456 -289 739 -333 957 -384 1062 -525 1084 -19
3 -46 1 -60 -5z m109 -114 c72 -82 183 -357 393 -975 66 -195 185 -507 242
-634 14 -33 24 -61 21 -64 -2 -3 -42 31 -88 74 -46 44 -112 95 -148 114 -60
33 -70 35 -154 35 -79 0 -97 -4 -149 -29 -74 -36 -163 -120 -337 -317 -76 -86
-171 -184 -213 -217 -77 -62 -178 -118 -194 -108 -5 3 -25 43 -43 88 -60 150
-139 310 -194 393 -45 68 -70 94 -133 141 -2 1 50 56 115 121 217 216 389 509
603 1028 108 264 132 314 164 353 38 44 74 43 115 -3z m-424 -487 c-66 -156
-268 -536 -294 -552 -11 -7 -230 156 -231 171 0 21 110 140 163 176 29 20 87
50 130 67 84 35 169 103 222 179 44 64 47 48 10 -41z m-442 -555 c53 -41 97
-76 97 -79 0 -15 -107 -138 -187 -215 -83 -80 -215 -179 -238 -179 -14 0 -448
313 -449 324 -1 5 138 66 309 136 l310 127 30 -20 c17 -12 74 -54 128 -94z"/>
<path d="M171 551 c-10 -7 -5 -11 18 -16 49 -10 53 -30 46 -193 -12 -256 -26
-322 -71 -322 -7 0 -16 -5 -19 -10 -4 -6 30 -10 95 -10 65 0 99 4 95 10 -3 6
-14 10 -24 10 -36 0 -51 33 -54 116 -3 121 2 318 9 311 3 -3 49 -102 103 -219
53 -117 101 -212 106 -212 5 1 54 98 108 215 54 118 102 218 108 224 13 13 12
-391 -1 -416 -6 -10 -19 -19 -30 -19 -10 0 -22 -5 -25 -10 -4 -7 58 -10 179
-10 102 0 186 2 186 5 0 3 -11 10 -25 15 -30 11 -32 41 -7 114 l17 50 75 -3
c41 -1 78 -5 81 -9 8 -9 49 -120 49 -133 0 -5 -12 -15 -27 -21 -27 -12 -27
-13 20 -16 26 -2 68 -2 95 0 44 3 45 4 22 15 -14 6 -31 17 -36 24 -6 8 -46
106 -88 218 -93 247 -92 244 -104 211 -145 -371 -165 -417 -188 -438 -18 -16
-32 -20 -52 -16 -55 13 -58 24 -65 259 -5 144 -3 223 4 236 5 11 23 22 40 26
54 10 30 24 -38 21 l-66 -3 -103 -220 -103 -219 -82 169 c-44 94 -92 194 -104
223 l-24 52 -53 0 c-29 0 -59 -4 -67 -9z m928 -259 l30 -82 -64 0 c-36 0 -65
4 -65 9 0 9 48 140 57 154 7 12 9 9 42 -81z"/>
<path d="M1246 456 c-9 -44 -7 -86 4 -86 6 0 10 6 10 14 0 8 10 27 23 42 18
21 35 28 75 32 l52 5 -2 -214 -3 -214 -35 -17 -35 -17 110 0 c109 1 110 1 73
16 -48 20 -50 29 -46 258 l3 180 43 3 c52 4 89 -17 104 -59 15 -42 32 -37 24
9 -3 20 -6 46 -6 57 0 19 -7 20 -194 20 l-194 0 -6 -29z"/>
<path d="M2237 460 c-8 -19 -48 -118 -87 -220 -40 -102 -78 -191 -83 -199 -6
-7 -23 -18 -37 -24 -24 -11 -23 -12 18 -15 23 -2 61 -2 85 0 l42 3 -30 15
c-34 18 -35 41 -6 119 l16 44 75 -2 c41 -1 78 -5 81 -9 13 -16 50 -133 44
-142 -3 -6 -12 -10 -20 -10 -8 0 -17 -4 -20 -10 -4 -6 27 -10 86 -10 l92 0
-34 23 c-31 20 -42 44 -111 227 -102 270 -93 253 -111 210z m10 -112 c6 -18
20 -57 32 -85 l21 -53 -69 0 -69 0 32 85 c17 47 34 85 37 85 3 0 10 -15 16
-32z"/>
<path d="M1670 470 c0 -5 8 -10 19 -10 38 0 42 -20 39 -226 l-3 -199 -30 -15
c-28 -14 -20 -15 129 -18 88 -1 163 1 166 5 10 11 32 104 26 110 -2 3 -16 -13
-30 -36 -32 -50 -52 -61 -113 -61 -80 0 -78 -4 -81 202 -3 197 4 230 46 236
12 2 22 8 22 13 0 5 -43 9 -95 9 -57 0 -95 -4 -95 -10z"/>
<path d="M2510 471 c0 -6 9 -11 20 -11 10 0 24 -9 30 -19 12 -24 13 -380 1
-400 -5 -8 -22 -20 -38 -27 -25 -11 -14 -12 87 -13 63 -1 132 4 152 9 52 15
96 55 109 100 16 53 -10 107 -67 136 l-42 21 30 18 c67 39 70 137 5 172 -39
21 -287 33 -287 14z m233 -31 c50 -40 44 -134 -9 -159 -14 -6 -43 -11 -64 -11
l-40 0 0 88 c0 49 3 92 7 95 14 15 81 6 106 -13z m-3 -205 c43 -22 60 -53 60
-108 0 -40 -5 -53 -29 -78 -24 -23 -38 -29 -73 -29 -24 0 -49 5 -56 12 -8 8
-12 48 -12 115 l0 103 40 0 c23 0 54 -7 70 -15z"/>
<path d="M2912 454 c-42 -29 -18 -104 35 -104 25 0 53 30 53 58 0 24 -32 62
-53 62 -7 0 -23 -7 -35 -16z m60 -11 c22 -20 23 -41 1 -65 -20 -22 -31 -23
-55 -1 -22 20 -23 41 -1 65 20 22 31 23 55 1z"/>
<path d="M2920 411 c0 -31 14 -42 23 -18 4 10 6 10 6 0 1 -7 5 -13 10 -13 5 0
8 12 7 28 -2 19 -10 28 -25 30 -18 3 -21 -2 -21 -27z"/>
</g>
</svg>
